<svg id="backgroundAndElements" xmlns="http://www.w3.org/2000/svg" viewBox="0 0 501.9 694.1">
  <g id="background">
    <rect id="bigBackgroundHouse" x="7.05" y="7.05" width="487.8" height="680" fill="#d0a285" stroke="#1d1d1b" stroke-miterlimit="10" stroke-width="10"/>
    <rect id="smallRoom" x="313.75" y="310.45" width="178.1" height="185.9" fill="#d0a285" stroke="#1d1d1b" stroke-miterlimit="10" stroke-width="10"/>
    <rect id="meduimRoom" x="7.95" y="445.55" width="178.7" height="241.5" fill="#d0a285" stroke="#1d1d1b" stroke-miterlimit="10" stroke-width="10"/>
    <g id="door-5">
      <path d="M299.55,358.25h-.8a48,48,0,0,1-47.9-47.9h1.5a46.46,46.46,0,0,0,45.6,46.4v-46.4h1.5v47.9Z" fill="#010101"/>
      <rect x="296.05" y="310.45" width="5.3" height="48.7" fill="#010101"/>
    </g>
    <g id="door-6">
      <path d="M364.65,480.65v.7h-45.4V480h44a43.88,43.88,0,0,0-43.9-43.2v-1.5a45.35,45.35,0,0,1,45.3,45.4h0Z" fill="#010101"/>
      <rect x="319.35" y="478.15" width="46.2" height="5.1" fill="#010101"/>
    </g>
    <g id="door-7">
      <path d="M17.65,492.85H17v-45.3h1.4v43.9a43.88,43.88,0,0,0,43.2-43.9H63a45.2,45.2,0,0,1-45.1,45.3h-.25Z" fill="#010101"/>
      <rect x="15.15" y="447.55" width="5.1" height="46.2" fill="#010101"/>
    </g>
    <rect id="bigToilet" x="237.15" y="174.55" width="254.7" height="133.1" fill="#cfe0f5" stroke="#1d1d1b" stroke-miterlimit="10" stroke-width="10"/>
    <g id="door-4">
      <path d="M223.05,262.65h.7v45.4h-1.5v-43.9a43.88,43.88,0,0,0-43.2,43.9h-1.4a45.42,45.42,0,0,1,45.3-45.4Z" fill="#010101"/>
      <rect x="220.45" y="261.85" width="5.1" height="46.2" fill="#010101"/>
    </g>
    <g id="door-3">
      <path d="M232.05,668.85v.7h-45.4v-1.4h43.9a43.88,43.88,0,0,0-43.9-43.2v-1.5a45.38,45.38,0,0,1,45.4,45.2Z" fill="#010101"/>
      <rect x="186.65" y="666.25" width="46.2" height="5.1" fill="#010101"/>
    </g>
    <g id="door-2">
      <path d="M55,369.35v.7H9.55v-1.4h43.9a43.88,43.88,0,0,0-43.9-43.2V324A45.39,45.39,0,0,1,55,369.15Z" fill="#010101"/>
      <rect x="9.55" y="366.85" width="46.2" height="5.1" fill="#010101"/>
    </g>
    <polygon id="largeRoom" points="237.15 7.05 7.05 7.05 7.05 307.65 237.15 307.65 237.15 177.25 494.75 177.25 494.75 7.05 237.15 7.05" fill="#d0a285" stroke="#1d1d1b" stroke-miterlimit="10" stroke-width="10"/>
    <rect id="smallToilet" x="8.55" y="380.15" width="178.1" height="65.4" fill="#cfe0f5" stroke="#1d1d1b" stroke-miterlimit="10" stroke-width="10"/>
  </g>
  <g id="toilet">
    <path d="M141.8,396.71H167v32H141.8a16,16,0,0,1-16-16h0A16,16,0,0,1,141.8,396.71Z" fill="#fff"/>
    <rect x="166.8" y="396.81" width="14.8" height="32" fill="#bdbec0"/>
  </g>
  <g id="toilet-2">
    <path d="M447.05,196.75h25.2v32h-25.2a16,16,0,0,1-16-16h0A16,16,0,0,1,447.05,196.75Z" fill="#fff"/>
    <rect x="472.15" y="196.75" width="14.8" height="32" fill="#bdbec0"/>
  </g>
  <g id="carpetRoomB" class="smallCarpet">
    <polyline id="colorChange" points="168.85 484.65 54.15 484.65 54.15 518.85 168.85 518.85" />
    <path d="M172.55,509.25a3.39,3.39,0,0,0-2.7,1.6,8.17,8.17,0,0,0-1.1,3.1c.3-1.8.7-3.7,2.1-4.9l-.3.4a3.08,3.08,0,0,1,2.1-.4" />
    <path d="M171.85,514.85a3,3,0,0,0-2.2,1.4,7.63,7.63,0,0,0-.8,2.6,7,7,0,0,1,1.6-4.2l-.2.3a2.71,2.71,0,0,1,1.8-.4" />
    <path d="M172.55,496.45a3.28,3.28,0,0,0-2.7,1.5,6.46,6.46,0,0,0-1.1,3c.4-1.8.8-3.7,2.2-4.8l-.3.4a3.08,3.08,0,0,1,2.1-.4" />
    <path d="M172.55,502.35a3.5,3.5,0,0,0-2.8,1.4,8,8,0,0,0-1.2,3c.4-1.8.9-3.7,2.4-4.8l-.3.4a3.89,3.89,0,0,1,2.1-.3" />
    <path d="M172.45,505.75a3.15,3.15,0,0,0-2.7,1.6,7.66,7.66,0,0,0-1.1,3c.4-1.8.8-3.7,2.1-4.9l-.3.4a3.08,3.08,0,0,1,2.1-.4" />
    <path d="M172.45,491.65a3.66,3.66,0,0,0-2.7,1.6,8.07,8.07,0,0,0-1,3.1c.3-1.8.7-3.7,2-4.9l-.3.4a3.08,3.08,0,0,1,2.1-.4" />
    <path d="M172.35,512.65a2.69,2.69,0,0,0-2.3,1.2,6.93,6.93,0,0,0-1.1,2.5,7.27,7.27,0,0,1,2-4l-.3.3a2.23,2.23,0,0,1,1.8-.2" />
    <path d="M173,484.05a3,3,0,0,0-2.9,1.1,7.83,7.83,0,0,0-1.6,2.8c.6-1.7,1.4-3.5,2.9-4.4l-.4.3a3.75,3.75,0,0,1,2.1,0" />
    <path d="M172.65,487.35a3.5,3.5,0,0,0-2.8,1.4,8,8,0,0,0-1.3,3c.5-1.8,1-3.6,2.4-4.7l-.3.4a3.89,3.89,0,0,1,2.1-.3" />
    <path d="M172.45,499.75a3.31,3.31,0,0,0-2.5.8,7.76,7.76,0,0,0-1.4,2.3c.6-1.4,1.2-2.9,2.5-3.7l-.3.3a2.77,2.77,0,0,1,1.8,0" />
    <path d="M171.85,507.65a3,3,0,0,0-2.2,1.4,7.63,7.63,0,0,0-.8,2.6,7,7,0,0,1,1.6-4.2l-.2.3a2.71,2.71,0,0,1,1.8-.4" />
    <path d="M171.85,489.75a3,3,0,0,0-2.2,1.4,7.63,7.63,0,0,0-.8,2.6,7,7,0,0,1,1.6-4.2l-.2.3a2.71,2.71,0,0,1,1.8-.4" />
    <path d="M171.85,494.25a3,3,0,0,0-2.2,1.4,6.08,6.08,0,0,0-.8,2.6,7,7,0,0,1,1.6-4.2l-.2.3a2.71,2.71,0,0,1,1.8-.4" />
    <path d="M172.05,481.25a2.69,2.69,0,0,0-2.3,1.2,6.93,6.93,0,0,0-1.1,2.5,7.27,7.27,0,0,1,2-4l-.3.3a2.85,2.85,0,0,1,1.8-.2" />
    <path d="M50.15,488a2.66,2.66,0,0,0,2.5-.8,6.81,6.81,0,0,0,1.4-2.3c-.6,1.4-1.3,2.9-2.6,3.6l.3-.3a2.78,2.78,0,0,1-1.8,0" />
    <path d="M50.15,494.25a2.66,2.66,0,0,0,2.5-.8,6.81,6.81,0,0,0,1.4-2.3c-.6,1.4-1.3,2.9-2.6,3.6l.3-.3a2.78,2.78,0,0,1-1.8,0" />
    <path d="M50.15,490.65a2.66,2.66,0,0,0,2.5-.8,6.81,6.81,0,0,0,1.4-2.3c-.6,1.4-1.3,2.9-2.6,3.6l.3-.3a2.78,2.78,0,0,1-1.8,0" />
    <path d="M50.15,496.25a2.66,2.66,0,0,0,2.5-.8,6.81,6.81,0,0,0,1.4-2.3c-.6,1.4-1.3,2.9-2.6,3.6l.3-.3a2.78,2.78,0,0,1-1.8,0" />
    <path d="M50.15,501.25a2.66,2.66,0,0,0,2.5-.8,6.81,6.81,0,0,0,1.4-2.3c-.6,1.4-1.3,2.9-2.6,3.6l.3-.3a2.78,2.78,0,0,1-1.8,0" />
    <path d="M50.15,498.85a2.66,2.66,0,0,0,2.5-.8,6.81,6.81,0,0,0,1.4-2.3c-.6,1.4-1.3,2.9-2.6,3.6l.3-.3a2.77,2.77,0,0,1-1.8,0" />
    <path d="M50.15,493.05a2.66,2.66,0,0,0,2.5-.8,6.81,6.81,0,0,0,1.4-2.3c-.6,1.4-1.3,2.9-2.6,3.6l.3-.3a2.78,2.78,0,0,1-1.8,0" />
    <path d="M49.05,484.65a2.72,2.72,0,0,0,2.4.9,5.43,5.43,0,0,0,2.5-.9c-1.3.7-2.8,1.5-4.3,1.2h.4a2.35,2.35,0,0,1-1.4-1.2" />
    <path d="M50.15,503.55a2.66,2.66,0,0,0,2.5-.8,6.81,6.81,0,0,0,1.4-2.3c-.6,1.4-1.3,2.9-2.6,3.6l.3-.3a2.78,2.78,0,0,1-1.8,0" />
    <path d="M50.15,509.85a2.66,2.66,0,0,0,2.5-.8,6.81,6.81,0,0,0,1.4-2.3c-.6,1.4-1.3,2.9-2.6,3.6l.3-.3a2.77,2.77,0,0,1-1.8,0" />
    <path d="M50.15,506.25a2.66,2.66,0,0,0,2.5-.8,6.81,6.81,0,0,0,1.4-2.3c-.6,1.4-1.3,2.9-2.6,3.6l.3-.3a2.78,2.78,0,0,1-1.8,0" />
    <path d="M50.15,511.85a2.66,2.66,0,0,0,2.5-.8,6.81,6.81,0,0,0,1.4-2.3c-.6,1.4-1.3,2.9-2.6,3.6l.3-.3a2.77,2.77,0,0,1-1.8,0" />
    <path d="M50.15,516.85a2.66,2.66,0,0,0,2.5-.8,6.81,6.81,0,0,0,1.4-2.3c-.6,1.4-1.3,2.9-2.6,3.6l.3-.3a2.77,2.77,0,0,1-1.8,0" />
    <path d="M50.15,514.55a2.66,2.66,0,0,0,2.5-.8,6.81,6.81,0,0,0,1.4-2.3c-.6,1.4-1.3,2.9-2.6,3.6l.3-.3a2.77,2.77,0,0,1-1.8,0" />
    <path d="M50.15,508.65a2.66,2.66,0,0,0,2.5-.8,6.81,6.81,0,0,0,1.4-2.3c-.6,1.4-1.3,2.9-2.6,3.6l.3-.3a2.78,2.78,0,0,1-1.8,0" />
    <path d="M50.15,519.15a2.66,2.66,0,0,0,2.5-.8,6.81,6.81,0,0,0,1.4-2.3c-.6,1.4-1.3,2.9-2.6,3.6l.3-.3a2.78,2.78,0,0,1-1.8,0" />
    <path d="M173.85,519.65a2.65,2.65,0,0,0-2.3-1.3,7.46,7.46,0,0,0-2.6.5c1.4-.5,3-1,4.4-.5H173a3.74,3.74,0,0,1,1.2,1.3" />
  </g>
  <g id="carpetRoomC" class="smallCarpet">
    <polyline id="colorChange-2" points="478.65 425.15 363.85 425.15 363.85 459.35 478.65 459.35" />
    <path d="M482.35,449.65a3.39,3.39,0,0,0-2.7,1.6,6.68,6.68,0,0,0-1,3.1c.3-1.8.7-3.7,2.1-4.9l-.3.4a3.08,3.08,0,0,1,2.1-.4" />
    <path d="M481.65,455.35a3,3,0,0,0-2.2,1.4,7.63,7.63,0,0,0-.8,2.6,7,7,0,0,1,1.6-4.2l-.2.3a2.54,2.54,0,0,1,1.7-.4" />
    <path d="M482.35,436.85a3.28,3.28,0,0,0-2.7,1.5,6.46,6.46,0,0,0-1.1,3c.4-1.8.8-3.7,2.2-4.8l-.3.4a3.08,3.08,0,0,1,2.1-.4" />
    <path d="M482.35,442.75a3.5,3.5,0,0,0-2.8,1.4,8,8,0,0,0-1.2,3c.4-1.8.9-3.6,2.3-4.8l-.3.4a3.89,3.89,0,0,1,2.1-.3" />
    <path d="M482.25,446.15a3.15,3.15,0,0,0-2.7,1.6,8.29,8.29,0,0,0-1.1,3c.3-1.8.8-3.7,2.1-4.9l-.3.4a3.08,3.08,0,0,1,2.1-.4" />
    <path d="M482.25,432.15a3.66,3.66,0,0,0-2.7,1.6,6.68,6.68,0,0,0-1,3.1c.3-1.8.7-3.7,2-4.9l-.3.4a3.87,3.87,0,0,1,2.1-.5" />
    <path d="M482.15,453.15a2.69,2.69,0,0,0-2.3,1.2,5.57,5.57,0,0,0-1,2.5,7.27,7.27,0,0,1,2-4l-.3.3a2.85,2.85,0,0,1,1.8-.2" />
    <path d="M482.75,424.55a3.44,3.44,0,0,0-2.9,1.1,7.83,7.83,0,0,0-1.6,2.8c.6-1.7,1.4-3.5,2.9-4.4l-.3.3a4.11,4.11,0,0,1,2.2,0" />
    <path d="M482.45,427.75a3.37,3.37,0,0,0-2.8,1.4,8,8,0,0,0-1.3,3c.5-1.8,1-3.6,2.4-4.7l-.3.4a3.89,3.89,0,0,1,2.1-.3" />
    <path d="M482.25,440.25a3.31,3.31,0,0,0-2.5.8,7.76,7.76,0,0,0-1.4,2.3c.6-1.4,1.2-2.9,2.5-3.6l-.3.3a2.77,2.77,0,0,1,1.8,0" />
    <path d="M481.65,448.15a3,3,0,0,0-2.2,1.4,7.63,7.63,0,0,0-.8,2.6c.2-1.5.5-3.1,1.6-4.1l-.2.3a2.54,2.54,0,0,1,1.7-.4" />
    <path d="M481.65,430.25a3,3,0,0,0-2.2,1.4,7.63,7.63,0,0,0-.8,2.6c.2-1.5.5-3.1,1.6-4.1l-.2.3a2.54,2.54,0,0,1,1.7-.4" />
    <path d="M481.65,434.75a3,3,0,0,0-2.2,1.4,7.63,7.63,0,0,0-.8,2.6c.2-1.5.5-3.1,1.6-4.1l-.2.3a2.71,2.71,0,0,1,1.8-.4" />
    <path d="M481.85,421.65a2.69,2.69,0,0,0-2.3,1.2,6.93,6.93,0,0,0-1.1,2.5,7.27,7.27,0,0,1,2-4l-.3.3a2.85,2.85,0,0,1,1.8-.2" />
    <path d="M359.85,428.45a2.66,2.66,0,0,0,2.5-.8,6.81,6.81,0,0,0,1.4-2.3c-.6,1.4-1.3,2.9-2.6,3.6l.3-.3a2.77,2.77,0,0,1-1.8,0" />
    <path d="M359.85,434.65a2.66,2.66,0,0,0,2.5-.8,6.81,6.81,0,0,0,1.4-2.3c-.6,1.4-1.3,2.9-2.6,3.6l.3-.3a2.77,2.77,0,0,1-1.8,0" />
    <path d="M359.85,431.05a2.66,2.66,0,0,0,2.5-.8,6.81,6.81,0,0,0,1.4-2.3c-.6,1.4-1.3,2.9-2.6,3.6l.3-.3a2.77,2.77,0,0,1-1.8,0" />
    <path d="M359.85,436.65a2.66,2.66,0,0,0,2.5-.8,6.81,6.81,0,0,0,1.4-2.3c-.6,1.4-1.3,2.9-2.6,3.6l.3-.3a2.77,2.77,0,0,1-1.8,0" />
    <path d="M359.85,441.75a2.66,2.66,0,0,0,2.5-.8,6.81,6.81,0,0,0,1.4-2.3c-.6,1.4-1.3,2.9-2.6,3.6l.3-.3a2.77,2.77,0,0,1-1.8,0" />
    <path d="M359.85,439.35a2.66,2.66,0,0,0,2.5-.8,6.81,6.81,0,0,0,1.4-2.3c-.6,1.4-1.3,2.9-2.6,3.6l.3-.3a2.77,2.77,0,0,1-1.8,0" />
    <path d="M359.85,433.55a2.66,2.66,0,0,0,2.5-.8,6.81,6.81,0,0,0,1.4-2.3c-.6,1.4-1.3,2.9-2.6,3.6l.3-.3a2.77,2.77,0,0,1-1.8,0" />
    <path d="M358.85,425.15a2.72,2.72,0,0,0,2.4.9,5.43,5.43,0,0,0,2.5-.9c-1.3.7-2.8,1.5-4.3,1.2h.4a2.59,2.59,0,0,1-1.4-1.1" />
    <path d="M359.85,444.05a2.66,2.66,0,0,0,2.5-.8,6.81,6.81,0,0,0,1.4-2.3c-.6,1.4-1.3,2.9-2.6,3.6l.3-.3a2.77,2.77,0,0,1-1.8,0" />
    <path d="M359.85,450.35a2.66,2.66,0,0,0,2.5-.8,6.81,6.81,0,0,0,1.4-2.3c-.6,1.4-1.3,2.9-2.6,3.6l.3-.3a2.77,2.77,0,0,1-1.8,0" />
    <path d="M359.85,446.75a2.66,2.66,0,0,0,2.5-.8,6.81,6.81,0,0,0,1.4-2.3c-.6,1.4-1.3,2.9-2.6,3.6l.3-.3a2.77,2.77,0,0,1-1.8,0" />
    <path d="M359.85,452.35a2.66,2.66,0,0,0,2.5-.8,6.81,6.81,0,0,0,1.4-2.3c-.6,1.4-1.3,2.9-2.6,3.6l.3-.3a2.77,2.77,0,0,1-1.8,0" />
    <path d="M359.85,457.35a2.66,2.66,0,0,0,2.5-.8,6.81,6.81,0,0,0,1.4-2.3c-.6,1.4-1.3,2.9-2.6,3.6l.3-.3a2.77,2.77,0,0,1-1.8,0" />
    <path d="M359.85,455a2.66,2.66,0,0,0,2.5-.8,6.81,6.81,0,0,0,1.4-2.3c-.6,1.4-1.3,2.9-2.6,3.6l.3-.3a2.77,2.77,0,0,1-1.8,0" />
    <path d="M359.85,449.15a2.66,2.66,0,0,0,2.5-.8,6.81,6.81,0,0,0,1.4-2.3c-.6,1.4-1.3,2.9-2.6,3.6l.3-.3a2.77,2.77,0,0,1-1.8,0" />
    <path d="M359.85,459.65a2.66,2.66,0,0,0,2.5-.8,6.81,6.81,0,0,0,1.4-2.3c-.6,1.4-1.3,2.9-2.6,3.6l.3-.3a2.77,2.77,0,0,1-1.8,0" />
    <path d="M483.55,460.05a2.65,2.65,0,0,0-2.3-1.3,8.6,8.6,0,0,0-2.7.5c1.4-.5,3-1,4.4-.5h-.4a3.74,3.74,0,0,1,1.2,1.3" />
  </g>
  <g id="carpetHallway" class="smallCarpet">
    <polyline id="colorChange-3" points="265.85 532.45 265.85 417.75 231.65 417.75 231.65 532.45" />
    <path d="M241.25,536.15a3.39,3.39,0,0,0-1.6-2.7,6.68,6.68,0,0,0-3.1-1c1.8.3,3.7.7,4.9,2.1l-.4-.3a3.08,3.08,0,0,1,.4,2.1" />
    <path d="M235.65,535.45a3,3,0,0,0-1.4-2.2,7.63,7.63,0,0,0-2.6-.8c1.5.2,3.1.5,4.1,1.6l-.3-.2a2.71,2.71,0,0,1,.4,1.8" />
    <path d="M254.05,536.15a3.28,3.28,0,0,0-1.5-2.7,6.46,6.46,0,0,0-3-1.1c1.8.4,3.7.8,4.8,2.2l-.4-.3a3.08,3.08,0,0,1,.4,2.1" />
    <path d="M248.25,536.15a3.5,3.5,0,0,0-1.4-2.8,8,8,0,0,0-3-1.2c1.8.4,3.7.9,4.8,2.3l-.4-.3a3.89,3.89,0,0,1,.3,2.1" />
    <path d="M244.75,536.05a3.15,3.15,0,0,0-1.6-2.7,8.29,8.29,0,0,0-3-1.1c1.8.3,3.7.8,4.9,2.1l-.4-.3a3.08,3.08,0,0,1,.4,2.1" />
    <path d="M258.85,536.05a3.66,3.66,0,0,0-1.6-2.7,6.68,6.68,0,0,0-3.1-1c1.8.3,3.7.7,4.9,2l-.4-.3a3.08,3.08,0,0,1,.4,2.1" />
    <path d="M237.85,536a2.69,2.69,0,0,0-1.2-2.3,7.37,7.37,0,0,0-2.4-1.1,7.27,7.27,0,0,1,4,2l-.3-.3a2.23,2.23,0,0,1,.2,1.8" />
    <path d="M266.45,536.55a3,3,0,0,0-1.1-2.9,7.83,7.83,0,0,0-2.8-1.6c1.7.7,3.5,1.4,4.4,3l-.3-.4a4.11,4.11,0,0,1,0,2.2" />
    <path d="M263.25,536.25a3.37,3.37,0,0,0-1.4-2.8,6.56,6.56,0,0,0-3-1.2c1.8.5,3.6,1,4.7,2.4l-.4-.3a3.89,3.89,0,0,1,.3,2.1" />
    <path d="M250.75,536.05a3,3,0,0,0-.9-2.5,7.76,7.76,0,0,0-2.3-1.4c1.4.6,2.9,1.2,3.7,2.5l-.3-.3a2.78,2.78,0,0,1,0,1.8" />
    <path d="M242.85,535.45a3,3,0,0,0-1.4-2.2,7.63,7.63,0,0,0-2.6-.8,7,7,0,0,1,4.2,1.6l-.4-.2a2.71,2.71,0,0,1,.4,1.8" />
    <path d="M260.75,535.45a3,3,0,0,0-1.4-2.2,7.63,7.63,0,0,0-2.6-.8,7,7,0,0,1,4.2,1.6l-.3-.2a2.71,2.71,0,0,1,.4,1.8" />
    <path d="M256.25,535.45a3,3,0,0,0-1.4-2.2,7.63,7.63,0,0,0-2.6-.8c1.5.2,3.1.5,4.1,1.6l-.3-.2a2.71,2.71,0,0,1,.4,1.8" />
    <path d="M269.25,535.65a2.69,2.69,0,0,0-1.2-2.3,7.54,7.54,0,0,0-2.5-1,7.27,7.27,0,0,1,4,2l-.3-.3a2.85,2.85,0,0,1,.2,1.8" />
    <path d="M262.55,413.65a2.66,2.66,0,0,0,.8,2.5,6.81,6.81,0,0,0,2.3,1.4c-1.4-.6-2.9-1.3-3.6-2.6l.3.3a2.78,2.78,0,0,1,0-1.8" />
    <path d="M256.25,413.65a2.66,2.66,0,0,0,.8,2.5,6.81,6.81,0,0,0,2.3,1.4c-1.4-.6-2.9-1.3-3.6-2.6l.3.3a2.78,2.78,0,0,1,0-1.8" />
    <path d="M259.85,413.65a2.66,2.66,0,0,0,.8,2.5,6.81,6.81,0,0,0,2.3,1.4c-1.4-.6-2.9-1.3-3.6-2.6l.3.3a2.78,2.78,0,0,1,0-1.8" />
    <path d="M254.35,413.65a2.66,2.66,0,0,0,.8,2.5,6.81,6.81,0,0,0,2.3,1.4c-1.4-.6-2.9-1.3-3.6-2.6l.3.3a2.77,2.77,0,0,1,0-1.8" />
    <path d="M249.25,413.65a2.66,2.66,0,0,0,.8,2.5,6.81,6.81,0,0,0,2.3,1.4c-1.4-.6-2.9-1.3-3.6-2.6l.3.3a2.78,2.78,0,0,1,0-1.8" />
    <path d="M251.65,413.65a2.66,2.66,0,0,0,.8,2.5,6.81,6.81,0,0,0,2.3,1.4c-1.4-.6-2.9-1.3-3.6-2.6l.3.3a2.78,2.78,0,0,1,0-1.8" />
    <path d="M257.45,413.65a2.66,2.66,0,0,0,.8,2.5,6.81,6.81,0,0,0,2.3,1.4c-1.4-.6-2.9-1.3-3.6-2.6l.3.3a2.78,2.78,0,0,1,0-1.8" />
    <path d="M265.85,412.65a2.72,2.72,0,0,0-.9,2.4,5.47,5.47,0,0,0,.9,2.5c-.7-1.3-1.5-2.8-1.2-4.3v.4a2.59,2.59,0,0,1,1.1-1.4" />
    <path d="M247,413.65a2.66,2.66,0,0,0,.8,2.5,6.81,6.81,0,0,0,2.3,1.4c-1.4-.6-2.9-1.3-3.6-2.6l.3.3a2.78,2.78,0,0,1,0-1.8" />
    <path d="M240.65,413.65a2.66,2.66,0,0,0,.8,2.5,6.81,6.81,0,0,0,2.3,1.4c-1.4-.6-2.9-1.3-3.6-2.6l.3.3a2.78,2.78,0,0,1,0-1.8" />
    <path d="M244.25,413.65a2.66,2.66,0,0,0,.8,2.5,6.81,6.81,0,0,0,2.3,1.4c-1.4-.6-2.9-1.3-3.6-2.6l.3.3a2.78,2.78,0,0,1,0-1.8" />
    <path d="M238.65,413.65a2.66,2.66,0,0,0,.8,2.5,6.81,6.81,0,0,0,2.3,1.4c-1.4-.6-2.9-1.3-3.6-2.6l.3.3a2.78,2.78,0,0,1,0-1.8" />
    <path d="M233.65,413.65a2.66,2.66,0,0,0,.8,2.5,6.81,6.81,0,0,0,2.3,1.4c-1.4-.6-2.9-1.3-3.6-2.6l.3.3a2.78,2.78,0,0,1,0-1.8" />
    <path d="M236,413.65a2.66,2.66,0,0,0,.8,2.5,6.81,6.81,0,0,0,2.3,1.4c-1.4-.6-2.9-1.3-3.6-2.6l.3.3a2.78,2.78,0,0,1,0-1.8" />
    <path d="M241.85,413.65a2.66,2.66,0,0,0,.8,2.5,6.81,6.81,0,0,0,2.3,1.4c-1.4-.6-2.9-1.3-3.6-2.6l.3.3a2.77,2.77,0,0,1,0-1.8" />
    <path d="M231.35,413.65a2.66,2.66,0,0,0,.8,2.5,6.81,6.81,0,0,0,2.3,1.4c-1.4-.6-2.9-1.3-3.6-2.6l.3.3a2.77,2.77,0,0,1,0-1.8" />
    <path d="M230.85,537.35a2.65,2.65,0,0,0,1.3-2.3,6.39,6.39,0,0,0-.5-2.7c.5,1.4,1,3,.5,4.4v-.4a2.79,2.79,0,0,1-1.4,1.2" />
  </g>
  <g id="bigCarpetHallway" class="bigCarpet">
    <polyline id="colorChange-4" points="256.2 634.74 371 634.74 371 566.14 256.2 566.14" />
    <path d="M252.6,585.54c1.1,0,2.1-1.4,2.7-3.2a25.17,25.17,0,0,0,1-6.1c-.3,3.6-.7,7.4-2.1,9.8l.3-.8a2,2,0,0,1-2.1.8" />
    <path d="M253.3,574.14c.9-.1,1.7-1.3,2.2-2.8a22.35,22.35,0,0,0,.8-5.2c-.2,3-.5,6.2-1.6,8.3l.2-.7a1.68,1.68,0,0,1-1.7.8" />
    <path d="M252.6,611.14c1.1.1,2.1-1.3,2.7-3a24.83,24.83,0,0,0,1.1-6.1c-.4,3.5-.8,7.4-2.2,9.7l.3-.8a1.76,1.76,0,0,1-2.1.7" />
    <path d="M252.6,599.34c1.1.1,2.1-1.1,2.8-2.9a24.57,24.57,0,0,0,1.2-6c-.4,3.5-.9,7.3-2.4,9.5l.3-.8a1.9,1.9,0,0,1-2.1.6" />
    <path d="M252.7,592.54c1.1,0,2.1-1.3,2.7-3.1a24.83,24.83,0,0,0,1.1-6.1c-.3,3.6-.8,7.4-2.1,9.8l.2-.9a2,2,0,0,1-2.1.8" />
    <path d="M252.6,620.64c1.1,0,2.1-1.4,2.7-3.2a26.06,26.06,0,0,0,1-6.2c-.3,3.6-.7,7.4-2,9.8l.3-.8a2.19,2.19,0,0,1-2.1.9" />
    <path d="M252.7,578.64c.9.2,1.8-.9,2.3-2.3a21.32,21.32,0,0,0,1-5c-.4,2.9-.8,6.1-2,7.9l.3-.6a1.54,1.54,0,0,1-1.8.4" />
    <path d="M252.2,635.94c1.1.4,2.2-.6,2.9-2.1a21.8,21.8,0,0,0,1.6-5.7c-.6,3.4-1.4,7-2.9,8.9l.4-.7a1.8,1.8,0,0,1-2.1.1" />
    <path d="M252.4,629.34c1.1.2,2.1-1.1,2.8-2.8a24.64,24.64,0,0,0,1.3-6c-.5,3.5-1,7.3-2.4,9.5l.3-.8a1.85,1.85,0,0,1-2.1.5" />
    <path d="M252.7,604.34c.9.4,1.8-.4,2.5-1.7a19.72,19.72,0,0,0,1.4-4.7c-.6,2.8-1.2,5.8-2.5,7.3l.3-.6a1.5,1.5,0,0,1-1.8,0" />
    <path d="M253.3,588.64c.9,0,1.7-1.3,2.2-2.8a22.35,22.35,0,0,0,.8-5.2c-.2,3-.5,6.2-1.6,8.3l.2-.7a1.68,1.68,0,0,1-1.7.8" />
    <path d="M253.3,624.34c.9-.1,1.7-1.3,2.2-2.8a22.35,22.35,0,0,0,.8-5.2c-.2,3-.5,6.2-1.6,8.3l.2-.7a1.68,1.68,0,0,1-1.7.8" />
    <path d="M253.3,615.44c.9,0,1.7-1.3,2.2-2.8a22.35,22.35,0,0,0,.8-5.2c-.2,3-.5,6.2-1.6,8.3l.2-.7a1.85,1.85,0,0,1-1.8.8" />
    <path d="M253.1,641.54c.9.2,1.8-.9,2.4-2.3a21.32,21.32,0,0,0,1-5c-.4,2.9-.8,6.1-2,7.9l.3-.6a1.73,1.73,0,0,1-1.8.5" />
    <path d="M375,628.14c-.9-.4-1.8.3-2.5,1.6a15.14,15.14,0,0,0-1.4,4.6c.6-2.8,1.3-5.8,2.6-7.2l-.3.5a1.5,1.5,0,0,1,1.8.1" />
    <path d="M375,615.54c-.9-.4-1.8.3-2.5,1.6a15.14,15.14,0,0,0-1.4,4.6c.6-2.8,1.3-5.8,2.6-7.2l-.3.5a1.5,1.5,0,0,1,1.8.1" />
    <path d="M375,622.74c-.9-.4-1.8.3-2.5,1.6a15.14,15.14,0,0,0-1.4,4.6c.6-2.8,1.3-5.8,2.6-7.2l-.3.5a1.5,1.5,0,0,1,1.8.1" />
    <path d="M375,611.54c-.9-.4-1.8.3-2.5,1.6a15.14,15.14,0,0,0-1.4,4.6c.6-2.8,1.3-5.8,2.6-7.2l-.3.5a1.5,1.5,0,0,1,1.8.1" />
    <path d="M375,601.44c-.9-.4-1.8.3-2.5,1.6a15.14,15.14,0,0,0-1.4,4.6c.6-2.8,1.3-5.8,2.6-7.2l-.3.5a1.5,1.5,0,0,1,1.8.1" />
    <path d="M375,606.14c-.9-.4-1.8.3-2.5,1.6a15.14,15.14,0,0,0-1.4,4.6c.6-2.8,1.3-5.8,2.6-7.2l-.3.5a1.5,1.5,0,0,1,1.8.1" />
    <path d="M375,617.84c-.9-.4-1.8.3-2.5,1.6a15.14,15.14,0,0,0-1.4,4.6c.6-2.8,1.3-5.8,2.6-7.2l-.3.5a1.5,1.5,0,0,1,1.8.1" />
    <path d="M376.1,634.74c-.6-1.4-1.5-2-2.4-1.8a5.14,5.14,0,0,0-2.5,1.8c1.3-1.4,2.8-2.9,4.3-2.4h-.4a4.28,4.28,0,0,1,1.4,2.3" />
    <path d="M375,596.84c-.9-.4-1.8.3-2.5,1.6a15.14,15.14,0,0,0-1.4,4.6c.6-2.8,1.3-5.8,2.6-7.2l-.3.5a1.5,1.5,0,0,1,1.8.1" />
    <path d="M375,584.24c-.9-.4-1.8.3-2.5,1.6a15.14,15.14,0,0,0-1.4,4.6c.6-2.8,1.3-5.8,2.6-7.2l-.3.5a1.5,1.5,0,0,1,1.8.1" />
    <path d="M375,591.44c-.9-.4-1.8.3-2.5,1.6a15.14,15.14,0,0,0-1.4,4.6c.6-2.8,1.3-5.8,2.6-7.2l-.3.5a1.5,1.5,0,0,1,1.8.1" />
    <path d="M375,580.24c-.9-.4-1.8.3-2.5,1.6a15.14,15.14,0,0,0-1.4,4.6c.6-2.8,1.3-5.8,2.6-7.2l-.3.5a1.5,1.5,0,0,1,1.8.1" />
    <path d="M375,570.14c-.9-.4-1.8.3-2.5,1.6a15.14,15.14,0,0,0-1.4,4.6c.6-2.8,1.3-5.8,2.6-7.2l-.3.5a1.5,1.5,0,0,1,1.8.1" />
    <path d="M375,574.84c-.9-.4-1.8.3-2.5,1.6a15.14,15.14,0,0,0-1.4,4.6c.6-2.8,1.3-5.8,2.6-7.2l-.3.5a1.5,1.5,0,0,1,1.8.1" />
    <path d="M375,586.54c-.9-.4-1.8.3-2.5,1.6a15.14,15.14,0,0,0-1.4,4.6c.6-2.8,1.3-5.8,2.6-7.2l-.3.5a1.5,1.5,0,0,1,1.8.1" />
    <path d="M375,565.54c-.9-.4-1.8.3-2.5,1.6a15.14,15.14,0,0,0-1.4,4.6c.6-2.8,1.3-5.8,2.6-7.2l-.3.5a1.5,1.5,0,0,1,1.8.1" />
    <path d="M251.3,564.64c.5,1.6,1.4,2.5,2.3,2.6a3.53,3.53,0,0,0,2.6-1c-1.4,1-3,2-4.4,1.1l.4.1a6.58,6.58,0,0,1-1.2-2.7" />
  </g>
  <g id="carpetRoomAa" class="bigCarpet">
    <polyline id="colorChange-5" points="183.3 204.95 68.6 204.95 68.6 273.55 183.3 273.55" />
    <path d="M187,254.15c-1.1,0-2.1,1.4-2.7,3.2a25.17,25.17,0,0,0-1,6.1c.3-3.6.7-7.4,2.1-9.8l-.3.8a2,2,0,0,1,2.1-.8" />
    <path d="M186.3,265.55c-.9.1-1.7,1.3-2.2,2.8a22.35,22.35,0,0,0-.8,5.2c.2-3,.5-6.2,1.6-8.3l-.2.7a1.68,1.68,0,0,1,1.7-.8" />
    <path d="M187,228.55c-1.1-.1-2.1,1.3-2.7,3a24.83,24.83,0,0,0-1.1,6.1c.4-3.5.8-7.4,2.2-9.7l-.3.8a1.76,1.76,0,0,1,2.1-.7" />
    <path d="M187,240.35c-1.1-.1-2.1,1.1-2.8,2.9a24.57,24.57,0,0,0-1.2,6c.4-3.5.9-7.3,2.4-9.6l-.3.8a1.9,1.9,0,0,1,2.1-.6" />
    <path d="M186.9,247.15c-1.1,0-2.1,1.3-2.7,3.1a24.83,24.83,0,0,0-1.1,6.1c.3-3.6.8-7.4,2.1-9.8l-.3.8a2,2,0,0,1,2.1-.8" />
    <path d="M186.9,219c-1.1,0-2.1,1.4-2.7,3.2a25.75,25.75,0,0,0-1,6.1c.3-3.6.7-7.4,2-9.8l-.3.8a2.19,2.19,0,0,1,2.1-.9" />
    <path d="M186.8,261.05c-.9-.1-1.8.9-2.3,2.3a21.32,21.32,0,0,0-1,5c.4-2.9.8-6.1,2-7.9l-.3.6a1.73,1.73,0,0,1,1.8-.5" />
    <path d="M187.4,203.75c-1.1-.4-2.2.6-2.9,2.1a22.28,22.28,0,0,0-1.6,5.6c.6-3.4,1.4-7,2.9-8.9l-.4.7a1.8,1.8,0,0,1,2.1-.1" />
    <path d="M187.1,210.25c-1.1-.2-2.1,1.1-2.8,2.8a24.64,24.64,0,0,0-1.3,6c.4-3.5,1-7.3,2.4-9.5l-.3.8a1.85,1.85,0,0,1,2.1-.5" />
    <path d="M186.9,235.35c-.9-.4-1.8.4-2.5,1.7a19.72,19.72,0,0,0-1.4,4.7c.6-2.8,1.2-5.8,2.5-7.3l-.3.5a1.5,1.5,0,0,1,1.8,0" />
    <path d="M186.3,251.05c-.9.1-1.7,1.3-2.2,2.8a22.35,22.35,0,0,0-.8,5.2c.2-3,.5-6.2,1.6-8.3l-.2.7a2,2,0,0,1,1.7-.9" />
    <path d="M186.3,215.25c-.9.1-1.7,1.3-2.2,2.8a22.35,22.35,0,0,0-.8,5.2c.2-3,.5-6.2,1.6-8.3l-.2.7a1.68,1.68,0,0,1,1.7-.8" />
    <path d="M186.3,224.15c-.9,0-1.7,1.3-2.2,2.8a22.35,22.35,0,0,0-.8,5.2c.2-3,.5-6.2,1.6-8.3l-.2.7a1.85,1.85,0,0,1,1.8-.8" />
    <path d="M186.5,198.15c-.9-.1-1.8.9-2.4,2.3a27.55,27.55,0,0,0-1.1,5c.4-2.9.8-6.1,2-7.9l-.3.6a1.73,1.73,0,0,1,1.8-.5" />
    <path d="M64.6,211.55c.9.4,1.8-.4,2.5-1.6a15.14,15.14,0,0,0,1.4-4.6c-.6,2.8-1.3,5.8-2.6,7.2l.3-.5a1.5,1.5,0,0,1-1.8-.1" />
    <path d="M64.6,224.15c.9.4,1.8-.4,2.5-1.6a15.14,15.14,0,0,0,1.4-4.6c-.6,2.8-1.3,5.8-2.6,7.2l.3-.5a1.5,1.5,0,0,1-1.8-.1" />
    <path d="M64.6,217c.9.4,1.8-.3,2.5-1.6a15.14,15.14,0,0,0,1.4-4.6c-.6,2.8-1.3,5.8-2.6,7.2l.3-.5a1.5,1.5,0,0,1-1.8-.1" />
    <path d="M64.6,228.15c.9.4,1.8-.4,2.5-1.6a15.14,15.14,0,0,0,1.4-4.6c-.6,2.8-1.3,5.8-2.6,7.2l.3-.5a1.5,1.5,0,0,1-1.8-.1" />
    <path d="M64.6,238.25c.9.4,1.8-.4,2.5-1.6a15.14,15.14,0,0,0,1.4-4.6c-.6,2.8-1.3,5.8-2.6,7.2l.3-.5a1.5,1.5,0,0,1-1.8-.1" />
    <path d="M64.6,233.45c.9.4,1.8-.4,2.5-1.6a15.14,15.14,0,0,0,1.4-4.6c-.6,2.8-1.3,5.8-2.6,7.2l.3-.5a1.5,1.5,0,0,1-1.8-.1" />
    <path d="M64.6,221.75c.9.4,1.8-.4,2.5-1.6a15.14,15.14,0,0,0,1.4-4.6c-.6,2.8-1.3,5.8-2.6,7.2l.3-.5a1.5,1.5,0,0,1-1.8-.1" />
    <path d="M63.5,205c.6,1.4,1.5,2,2.4,1.9a4.7,4.7,0,0,0,2.5-1.9c-1.3,1.4-2.8,2.9-4.3,2.4h.4a4.28,4.28,0,0,1-1.4-2.3" />
    <path d="M64.6,242.85c.9.4,1.8-.4,2.5-1.6a15.14,15.14,0,0,0,1.4-4.6c-.6,2.8-1.3,5.8-2.6,7.2l.3-.5a1.5,1.5,0,0,1-1.8-.1" />
    <path d="M64.6,255.45c.9.4,1.8-.3,2.5-1.6a15.14,15.14,0,0,0,1.4-4.6c-.6,2.8-1.3,5.8-2.6,7.2l.3-.5a1.5,1.5,0,0,1-1.8-.1" />
    <path d="M64.6,248.25c.9.4,1.8-.4,2.5-1.6a15.14,15.14,0,0,0,1.4-4.6c-.6,2.8-1.3,5.8-2.6,7.2l.3-.5a1.5,1.5,0,0,1-1.8-.1" />
    <path d="M64.6,259.35c.9.4,1.8-.4,2.5-1.6a15.14,15.14,0,0,0,1.4-4.6c-.6,2.8-1.3,5.8-2.6,7.2l.3-.5a1.5,1.5,0,0,1-1.8-.1" />
    <path d="M64.6,269.55c.9.4,1.8-.3,2.5-1.6a15.14,15.14,0,0,0,1.4-4.6c-.6,2.8-1.3,5.8-2.6,7.2l.3-.5a1.5,1.5,0,0,1-1.8-.1" />
    <path d="M64.6,264.75c.9.4,1.8-.4,2.5-1.6a15.14,15.14,0,0,0,1.4-4.6c-.6,2.8-1.3,5.8-2.6,7.2l.3-.5a1.5,1.5,0,0,1-1.8-.1" />
    <path d="M64.6,253.05c.9.4,1.8-.4,2.5-1.6a15.14,15.14,0,0,0,1.4-4.6c-.6,2.8-1.3,5.8-2.6,7.2l.3-.5a1.5,1.5,0,0,1-1.8-.1" />
    <path d="M64.6,274.15c.9.4,1.8-.4,2.5-1.6a15.14,15.14,0,0,0,1.4-4.6c-.6,2.8-1.3,5.8-2.6,7.2l.3-.5a1.5,1.5,0,0,1-1.8-.1" />
    <path d="M188.2,275.05a3.13,3.13,0,0,0-2.3-2.6,3.53,3.53,0,0,0-2.6,1c1.4-1,3-2,4.4-1l-.4-.1a6.58,6.58,0,0,1,1.2,2.7" />
  </g>
  <g id="carpetRoomAb" class="bigCarpet">
    <polyline id="colorChange-6" points="265.05 140.25 265.05 25.45 196.55 25.45 196.55 140.25" />
    <path d="M215.85,144c0-1.1-1.4-2.1-3.2-2.7a25.17,25.17,0,0,0-6.1-1c3.6.3,7.4.7,9.8,2.1l-.8-.3a2,2,0,0,1,.8,2.1" />
    <path d="M204.55,143.25c-.1-.9-1.3-1.7-2.8-2.2a22.35,22.35,0,0,0-5.2-.8c3,.2,6.2.5,8.3,1.6l-.7-.2a1.85,1.85,0,0,1,.8,1.8" />
    <path d="M241.45,143.85c.1-1.1-1.3-2.1-3-2.7a24.83,24.83,0,0,0-6.1-1.1c3.5.4,7.4.8,9.7,2.2l-.8-.3a1.76,1.76,0,0,1,.7,2.1" />
    <path d="M229.75,144c.1-1.1-1.1-2.1-2.9-2.8a24.57,24.57,0,0,0-6-1.2c3.5.4,7.3.9,9.6,2.4l-.8-.3a1.9,1.9,0,0,1,.6,2.1" />
    <path d="M223,143.75c0-1.1-1.3-2.1-3.1-2.7a24.83,24.83,0,0,0-6.1-1.1c3.6.3,7.4.8,9.8,2.1l-.8-.3a2,2,0,0,1,.8,2.1" />
    <path d="M251.05,143.85c0-1.1-1.4-2.1-3.2-2.7a25.75,25.75,0,0,0-6.1-1c3.6.3,7.4.7,9.8,2l-.8-.3a2.19,2.19,0,0,1,.9,2.1" />
    <path d="M209.05,143.75c.1-.9-.9-1.8-2.3-2.3a21.32,21.32,0,0,0-5-1c2.9.4,6.1.8,7.9,2l-.6-.3a1.73,1.73,0,0,1,.5,1.8" />
    <path d="M266.25,144.25c.4-1.1-.6-2.2-2.1-2.9a22.28,22.28,0,0,0-5.6-1.6c3.4.6,7,1.4,8.9,2.9l-.7-.4a1.8,1.8,0,0,1,.1,2.1" />
    <path d="M259.75,144.05c.2-1.1-1.1-2.1-2.8-2.8a24.64,24.64,0,0,0-6-1.3c3.5.4,7.3,1,9.5,2.4l-.8-.3a1.85,1.85,0,0,1,.5,2.1" />
    <path d="M234.75,143.75c.4-.9-.4-1.8-1.7-2.5a19.72,19.72,0,0,0-4.7-1.4c2.8.6,5.8,1.2,7.3,2.5l-.5-.3a1.5,1.5,0,0,1,0,1.8" />
    <path d="M219,143.25c-.1-.9-1.3-1.7-2.8-2.2a22.35,22.35,0,0,0-5.2-.8c3,.2,6.2.5,8.3,1.6l-.7-.2a2.14,2.14,0,0,1,.9,1.8" />
    <path d="M254.75,143.25c-.1-.9-1.3-1.7-2.8-2.2a22.35,22.35,0,0,0-5.2-.8c3,.2,6.2.5,8.3,1.6l-.7-.2a1.85,1.85,0,0,1,.8,1.8" />
    <path d="M245.85,143.25c0-.9-1.3-1.7-2.8-2.2a22.35,22.35,0,0,0-5.2-.8c3,.2,6.2.5,8.3,1.6l-.7-.2a1.85,1.85,0,0,1,.8,1.8" />
    <path d="M272,143.45c.1-.9-.9-1.8-2.3-2.3a21,21,0,0,0-5-1.1c2.9.4,6.1.8,7.9,2l-.6-.3a1.73,1.73,0,0,1,.5,1.8" />
    <path d="M258.45,21.45c-.4.9.4,1.8,1.6,2.5a15.14,15.14,0,0,0,4.6,1.4c-2.8-.6-5.8-1.3-7.2-2.6l.5.3a1.5,1.5,0,0,1,.1-1.8" />
    <path d="M245.85,21.45c-.4.9.4,1.8,1.6,2.5a15.14,15.14,0,0,0,4.6,1.4c-2.8-.6-5.8-1.3-7.2-2.6l.5.3a1.5,1.5,0,0,1,.1-1.8" />
    <path d="M253.15,21.45c-.4.9.3,1.8,1.6,2.5a15.14,15.14,0,0,0,4.6,1.4c-2.8-.6-5.8-1.3-7.2-2.6l.5.3a1.5,1.5,0,0,1,.1-1.8" />
    <path d="M242,21.45c-.4.9.4,1.8,1.6,2.5a15.14,15.14,0,0,0,4.6,1.4c-2.8-.6-5.8-1.3-7.2-2.6l.5.3a1.5,1.5,0,0,1,.1-1.8" />
    <path d="M231.75,21.45c-.4.9.4,1.8,1.6,2.5a15.14,15.14,0,0,0,4.6,1.4c-2.8-.6-5.8-1.3-7.2-2.6l.5.3a1.5,1.5,0,0,1,.1-1.8" />
    <path d="M236.55,21.45c-.4.9.4,1.8,1.6,2.5a15.14,15.14,0,0,0,4.6,1.4c-2.8-.6-5.8-1.3-7.2-2.6l.5.3a1.5,1.5,0,0,1,.1-1.8" />
    <path d="M248.25,21.45c-.4.9.4,1.8,1.6,2.5a15.14,15.14,0,0,0,4.6,1.4c-2.8-.6-5.8-1.3-7.2-2.6l.5.3a1.5,1.5,0,0,1,.1-1.8" />
    <path d="M265.05,20.35c-1.4.6-2,1.5-1.9,2.4a4.7,4.7,0,0,0,1.9,2.5c-1.4-1.3-2.9-2.8-2.4-4.3v.4A4.28,4.28,0,0,1,265,20" />
    <path d="M227.25,21.45c-.4.9.4,1.8,1.6,2.5a15.14,15.14,0,0,0,4.6,1.4c-2.8-.6-5.8-1.3-7.2-2.6l.5.3a1.5,1.5,0,0,1,.1-1.8" />
    <path d="M214.65,21.45c-.4.9.3,1.8,1.6,2.5a15.14,15.14,0,0,0,4.6,1.4c-2.8-.6-5.8-1.3-7.2-2.6l.5.3a1.5,1.5,0,0,1,.1-1.8" />
    <path d="M221.85,21.45c-.4.9.4,1.8,1.6,2.5a15.14,15.14,0,0,0,4.6,1.4c-2.8-.6-5.8-1.3-7.2-2.6l.5.3a1.5,1.5,0,0,1,.1-1.8" />
    <path d="M210.65,21.45c-.4.9.4,1.8,1.6,2.5a15.14,15.14,0,0,0,4.6,1.4c-2.8-.6-5.8-1.3-7.2-2.6l.5.3a1.5,1.5,0,0,1,.1-1.8" />
    <path d="M200.55,21.45c-.4.9.3,1.8,1.6,2.5a15.14,15.14,0,0,0,4.6,1.4c-2.8-.6-5.8-1.3-7.2-2.6l.5.3a1.5,1.5,0,0,1,.1-1.8" />
    <path d="M205.25,21.45c-.4.9.4,1.8,1.6,2.5a15.14,15.14,0,0,0,4.6,1.4c-2.8-.6-5.8-1.3-7.2-2.6l.5.3a1.5,1.5,0,0,1,.1-1.8" />
    <path d="M217,21.45c-.4.9.4,1.8,1.6,2.5a15.14,15.14,0,0,0,4.6,1.4c-2.8-.6-5.8-1.3-7.2-2.6l.5.3a1.5,1.5,0,0,1,.1-1.8" />
    <path d="M196,21.45c-.4.9.4,1.8,1.6,2.5a15.14,15.14,0,0,0,4.6,1.4c-2.8-.6-5.8-1.3-7.2-2.6l.6.3a1.5,1.5,0,0,1,.1-1.8" />
    <path d="M195.05,145.15a3.13,3.13,0,0,0,2.6-2.3,3.53,3.53,0,0,0-1-2.6c1,1.4,2,3,1.1,4.4l.1-.4a6.58,6.58,0,0,1-2.7,1.2" />
  </g>
  <g id="carpetRoomAc" class="bigCarpet">
    <polyline id="colorChange-7" points="421.64 64.45 306.94 64.45 306.94 132.95 421.64 132.95" />
    <path d="M425.34,113.55c-1.1,0-2.1,1.4-2.7,3.2a25.75,25.75,0,0,0-1,6.1c.3-3.6.7-7.4,2.1-9.8l-.3.8a2,2,0,0,1,2.1-.8" />
    <path d="M424.64,125c-.9.1-1.7,1.3-2.2,2.8a22.35,22.35,0,0,0-.8,5.2c.2-3,.5-6.2,1.6-8.3l-.2.7a1.68,1.68,0,0,1,1.7-.8" />
    <path d="M425.34,88.05c-1.1-.1-2.1,1.3-2.7,3a24.83,24.83,0,0,0-1.1,6.1c.4-3.5.8-7.4,2.2-9.7l-.3.8a1.9,1.9,0,0,1,2.1-.7" />
    <path d="M425.34,99.75c-1.1-.1-2.1,1.1-2.8,2.9a30.52,30.52,0,0,0-1.2,6c.4-3.5.9-7.3,2.4-9.6l-.3.8a1.9,1.9,0,0,1,2.1-.6" />
    <path d="M425.24,106.55c-1.1,0-2.1,1.3-2.7,3.1a24.83,24.83,0,0,0-1.1,6.1c.4-3.6.8-7.4,2.1-9.8l-.3.8a2,2,0,0,1,2.1-.8" />
    <path d="M425.24,78.45c-1.1,0-2.1,1.4-2.7,3.2a25.75,25.75,0,0,0-1,6.1c.3-3.6.7-7.4,2-9.8l-.3.8a2.19,2.19,0,0,1,2.1-.9" />
    <path d="M425.14,120.55c-.9-.1-1.8.9-2.3,2.3a21.32,21.32,0,0,0-1,5c.4-2.9.8-6.1,2-7.9l-.3.6a1.54,1.54,0,0,1,1.8-.4" />
    <path d="M425.74,63.25c-1.1-.4-2.2.6-2.9,2.1a21.8,21.8,0,0,0-1.6,5.7c.6-3.4,1.4-7,2.9-8.9l-.4.7a1.8,1.8,0,0,1,2.1-.1" />
    <path d="M425.44,69.75c-1.1-.2-2.1,1.1-2.8,2.8a20.51,20.51,0,0,0-1.2,6c.5-3.5,1-7.3,2.4-9.5l-.3.8a1.85,1.85,0,0,1,2.1-.5" />
    <path d="M425.24,94.75c-.9-.4-1.8.4-2.5,1.7a19.72,19.72,0,0,0-1.4,4.7c.6-2.8,1.2-5.8,2.5-7.3l-.3.6a1.5,1.5,0,0,1,1.8,0" />
    <path d="M424.64,110.55c-.9.1-1.7,1.3-2.2,2.8a22.35,22.35,0,0,0-.8,5.2c.2-3,.5-6.2,1.6-8.3l-.2.7a1.68,1.68,0,0,1,1.7-.8" />
    <path d="M424.64,74.75c-.9.1-1.7,1.3-2.2,2.8a22.35,22.35,0,0,0-.8,5.2c.2-3,.5-6.2,1.6-8.3l-.2.7a1.68,1.68,0,0,1,1.7-.8" />
    <path d="M424.64,83.65c-.9.1-1.7,1.3-2.2,2.8a22.35,22.35,0,0,0-.8,5.2c.2-3,.5-6.2,1.6-8.3l-.2.7a1.85,1.85,0,0,1,1.8-.8" />
    <path d="M424.84,57.55c-.9-.1-1.8.9-2.3,2.3a17.09,17.09,0,0,0-1,5c.4-2.9.8-6.1,2-7.9l-.3.6a1.54,1.54,0,0,1,1.8-.4" />
    <path d="M302.94,71.05c.9.4,1.8-.3,2.5-1.6a15.14,15.14,0,0,0,1.4-4.6c-.6,2.8-1.3,5.8-2.6,7.2l.3-.6a1.5,1.5,0,0,1-1.8-.1" />
    <path d="M302.94,83.55c.9.4,1.8-.3,2.5-1.6a15.14,15.14,0,0,0,1.4-4.6c-.6,2.8-1.3,5.8-2.6,7.2l.3-.5a1.5,1.5,0,0,1-1.8-.1" />
    <path d="M302.94,76.35c.9.4,1.8-.3,2.5-1.6a15.14,15.14,0,0,0,1.4-4.6c-.6,2.8-1.3,5.8-2.6,7.2l.3-.5a1.5,1.5,0,0,1-1.8-.1" />
    <path d="M302.94,87.55c.9.4,1.8-.4,2.5-1.6a15.14,15.14,0,0,0,1.4-4.6c-.6,2.8-1.3,5.8-2.6,7.2l.3-.6a1.5,1.5,0,0,1-1.8-.1" />
    <path d="M302.94,97.65c.9.4,1.8-.3,2.5-1.6a15.14,15.14,0,0,0,1.4-4.6c-.6,2.8-1.3,5.8-2.6,7.2l.3-.5a1.5,1.5,0,0,1-1.8-.1" />
    <path d="M302.94,93c.9.4,1.8-.4,2.5-1.6a15.14,15.14,0,0,0,1.4-4.6c-.6,2.8-1.3,5.8-2.6,7.2l.3-.5a1.5,1.5,0,0,1-1.8-.1" />
    <path d="M302.94,81.25c.9.4,1.8-.4,2.5-1.6a15.14,15.14,0,0,0,1.4-4.6c-.6,2.8-1.3,5.8-2.6,7.2l.3-.5a1.5,1.5,0,0,1-1.8-.1" />
    <path d="M301.84,64.45c.6,1.4,1.5,2,2.4,1.8a5.14,5.14,0,0,0,2.5-1.8c-1.3,1.4-2.8,2.9-4.3,2.4h.4a4.28,4.28,0,0,1-1.4-2.3" />
    <path d="M302.94,102.25c.9.4,1.8-.3,2.5-1.6a15.14,15.14,0,0,0,1.4-4.6c-.6,2.8-1.3,5.8-2.6,7.2l.3-.6a1.5,1.5,0,0,1-1.8-.1" />
    <path d="M302.94,114.85c.9.4,1.8-.4,2.5-1.6a15.14,15.14,0,0,0,1.4-4.6c-.6,2.8-1.3,5.8-2.6,7.2l.3-.5a1.5,1.5,0,0,1-1.8-.1" />
    <path d="M302.94,107.65c.9.4,1.8-.4,2.5-1.6a15.14,15.14,0,0,0,1.4-4.6c-.6,2.8-1.3,5.8-2.6,7.2l.3-.6a1.5,1.5,0,0,1-1.8-.1" />
    <path d="M302.94,118.85c.9.4,1.8-.3,2.5-1.6a15.14,15.14,0,0,0,1.4-4.6c-.6,2.8-1.3,5.8-2.6,7.2l.3-.5a1.5,1.5,0,0,1-1.8-.1" />
    <path d="M302.94,129c.9.4,1.8-.4,2.5-1.6a15.14,15.14,0,0,0,1.4-4.6c-.6,2.8-1.3,5.8-2.6,7.2l.3-.5a1.5,1.5,0,0,1-1.8-.1" />
    <path d="M302.94,124.25c.9.4,1.8-.4,2.5-1.6a15.14,15.14,0,0,0,1.4-4.6c-.6,2.8-1.3,5.8-2.6,7.2l.3-.6a1.5,1.5,0,0,1-1.8-.1" />
    <path d="M302.94,112.55c.9.4,1.8-.4,2.5-1.6a15.14,15.14,0,0,0,1.4-4.6c-.6,2.8-1.3,5.8-2.6,7.2l.3-.6a1.5,1.5,0,0,1-1.8-.1" />
    <path d="M302.94,133.55c.9.4,1.8-.4,2.5-1.6a15.14,15.14,0,0,0,1.4-4.6c-.6,2.8-1.3,5.8-2.6,7.2l.3-.5a1.5,1.5,0,0,1-1.8-.1" />
    <path d="M426.64,134.45c-.5-1.6-1.4-2.5-2.3-2.6a3.53,3.53,0,0,0-2.6,1c1.4-1,3-2,4.4-1.1l-.4-.1a6.58,6.58,0,0,1,1.2,2.7" />
  </g>
  <g id="stoveKitch-2" class="stove">
    <rect id="plate-4" x="425.3" y="557.59" width="64.7" height="124.6" />
    <rect x="438.3" y="602.19" width="37.3" height="69.3" fill="#e1eaee"/>
    <path d="M446.5,648.89l.1,8.5a6.45,6.45,0,0,0,6.5,6.3l8.5-.1a6.51,6.51,0,0,0,6.3-6.5l-.1-8.5a6.51,6.51,0,0,0-6.5-6.3l-8.5.1A6.45,6.45,0,0,0,446.5,648.89Z" fill="#a7a9ab"/>
    <path d="M445.1,657.49,445,649a7.9,7.9,0,0,1,7.7-8h.1l8.5-.1a7.9,7.9,0,0,1,8,7.7v.1l.1,8.5a7.9,7.9,0,0,1-7.7,8h-.1l-8.5.1A7.93,7.93,0,0,1,445.1,657.49Zm21.2-8.9a4.85,4.85,0,0,0-4.9-4.8h-.1l-8.5.1a4.85,4.85,0,0,0-4.8,4.9v.1h0l.1,8.5a4.85,4.85,0,0,0,4.9,4.8h.1l8.5-.1a4.85,4.85,0,0,0,4.8-4.9v-.1h0Z" fill="#010101"/>
    <circle cx="457" cy="653.09" r="4.7" fill="#010101"/>
    <line x1="467.8" y1="652.89" x2="446.5" y2="653.09" />
    <rect x="446.49" y="651.47" width="21.3" height="3" transform="translate(-7.72 5.47) rotate(-0.68)" fill="#010101"/>
    <line x1="457.3" y1="663.69" x2="457" y2="642.29" />
    <rect x="454.4" y="643.17" width="3" height="21.3" transform="translate(-6.52 4.59) rotate(-0.57)" fill="#010101"/>
    <path d="M446.1,616.59l.1,8.5a6.45,6.45,0,0,0,6.5,6.3l8.5-.1a6.39,6.39,0,0,0,6.3-6.46v0l-.1-8.5a6.45,6.45,0,0,0-6.5-6.3l-8.5.1a6.39,6.39,0,0,0-6.3,6.46Z" fill="#a7a9ab"/>
    <path d="M444.7,625.09l-.1-8.5a7.9,7.9,0,0,1,7.7-8h.1l8.5-.1a7.9,7.9,0,0,1,8,7.7v.1l.1,8.5a7.84,7.84,0,0,1-7.66,8h-.14l-8.5.1a7.9,7.9,0,0,1-8-7.7Zm21.2-8.8a4.78,4.78,0,0,0-4.78-4.8h-.22l-8.5.1a4.85,4.85,0,0,0-4.8,4.9v.1h0l.1,8.5a4.78,4.78,0,0,0,4.78,4.8h.22l8.5-.1a4.85,4.85,0,0,0,4.8-4.9v-.1h0Z" fill="#010101"/>
    <circle cx="456.7" cy="620.69" r="4.7" fill="#010101"/>
    <line x1="467.5" y1="620.59" x2="446.1" y2="620.89" />
    <rect x="446.19" y="619.17" width="21.3" height="3" transform="translate(-7.33 5.47) rotate(-0.68)" fill="#010101"/>
    <line x1="456.9" y1="631.29" x2="456.6" y2="609.99" />
    <rect x="454.17" y="610.86" width="3" height="21.3" transform="translate(-6.19 4.59) rotate(-0.57)" fill="#010101"/>
  </g>
  <g id="stoveKitch" class="stove">
    <rect id="plate-3" x="76.65" y="12.06" width="124.6" height="64.7" />
    <rect x="121.25" y="26.46" width="69.3" height="37.3" fill="#e1eaee"/>
    <path d="M168,55.56l8.5-.1a6.45,6.45,0,0,0,6.3-6.5l-.1-8.5a6.51,6.51,0,0,0-6.5-6.3l-8.5.1a6.51,6.51,0,0,0-6.3,6.5l.1,8.5A6.45,6.45,0,0,0,168,55.56Z" fill="#a7a9ab"/>
    <path d="M176.55,57l-8.5.1a7.9,7.9,0,0,1-8-7.7v-.1l-.1-8.5a7.9,7.9,0,0,1,7.7-8h.1l8.5-.1a7.9,7.9,0,0,1,8,7.7v.1l.1,8.5A7.92,7.92,0,0,1,176.55,57Zm-8.9-21.2a4.85,4.85,0,0,0-4.8,4.9v.1h0l.1,8.5a4.85,4.85,0,0,0,4.9,4.8h.1l8.5-.1a4.85,4.85,0,0,0,4.8-4.9V49h0l-.1-8.5a4.85,4.85,0,0,0-4.9-4.8h-.1Z" fill="#010101"/>
    <circle cx="172.15" cy="45.06" r="4.7" fill="#010101"/>
    <line x1="171.95" y1="34.26" x2="172.15" y2="55.56" />
    <rect x="170.53" y="34.28" width="3" height="21.3" transform="translate(-0.52 2.04) rotate(-0.68)" fill="#010101"/>
    <line x1="182.75" y1="44.76" x2="161.35" y2="45.06" />
    <rect x="161.26" y="43.8" width="21.3" height="3" transform="matrix(1, -0.01, 0.01, 1, -0.44, 1.72)" fill="#010101"/>
    <path d="M135.65,56l8.5-.1a6.45,6.45,0,0,0,6.3-6.5l-.1-8.5a6.39,6.39,0,0,0-6.46-6.3h0l-8.5.1a6.45,6.45,0,0,0-6.3,6.5l.1,8.5a6.39,6.39,0,0,0,6.46,6.3Z" fill="#a7a9ab"/>
    <path d="M144.15,57.36l-8.5.1a7.9,7.9,0,0,1-8-7.7v-.1l-.1-8.5a7.9,7.9,0,0,1,7.7-8h.1l8.5-.1a7.84,7.84,0,0,1,8,7.66v.14l.1,8.5a7.9,7.9,0,0,1-7.7,8Zm-8.8-21.2a4.78,4.78,0,0,0-4.8,4.78v.22l.1,8.5a4.85,4.85,0,0,0,4.9,4.8h.1l8.5-.1a4.78,4.78,0,0,0,4.8-4.78v-.22l-.1-8.5a4.85,4.85,0,0,0-4.9-4.8h-.1Z" fill="#010101"/>
    <circle cx="139.75" cy="45.36" r="4.7" fill="#010101"/>
    <line x1="139.65" y1="34.56" x2="139.95" y2="55.96" />
    <rect x="138.23" y="34.58" width="3" height="21.3" transform="translate(-0.53 1.66) rotate(-0.68)" fill="#010101"/>
    <line x1="150.35" y1="45.16" x2="129.05" y2="45.46" />
    <rect x="128.95" y="44.04" width="21.3" height="3" transform="matrix(1, -0.01, 0.01, 1, -0.45, 1.4)" fill="#010101"/>
  </g>
  <g id="washKitch-2" class="kitchenWash">
    <rect id="plate-2" x="11.95" y="12.05" width="64.7" height="154.7" />
    <g id="wash-1">
      <path d="M29.55,145.35h20.1a10.82,10.82,0,0,0,10.8-10.8v-30.4a11,11,0,0,0-10.8-10.9H29.55a10.84,10.84,0,0,0-10.8,10.88v30.42a10.76,10.76,0,0,0,10.72,10.8Z" fill="#c6cdc8"/>
      <path d="M29.35,119.35h0a3.67,3.67,0,0,0-3.6-3.7H12v7.4H25.7a3.69,3.69,0,0,0,3.7-3.68v0Z" fill="#6e6f72"/>
      <circle cx="39.55" cy="119.35" r="6.3" fill="#010101"/>
    </g>
  </g>
  <g id="washKitch" class="kitchenWash">
    <rect id="plate-1" x="308.55" y="501.25" width="181.24" height="64.7" />
    <path d="M334.52,518.85V539A10.67,10.67,0,0,0,345,549.8h29.55A10.68,10.68,0,0,0,385.06,539V518.9a10.68,10.68,0,0,0-10.49-10.8H345a10.61,10.61,0,0,0-10.5,10.72v.08Z" fill="#c6cdc8"/>
    <path d="M359.79,518.65h0a3.62,3.62,0,0,0,3.6-3.6v-13.8h-7.2V515a3.64,3.64,0,0,0,3.6,3.7h0Z" fill="#6e6f72"/>
    <ellipse cx="359.79" cy="528.85" rx="6.12" ry="6.3" fill="#010101"/>
  </g>
  <g id="vindueK" class="window">
    <rect x="111.5" y="1.5" width="47.9" height="11.1" fill="#fff"/>
    <path d="M110,0h50.9V14.1H110Zm47.9,3H113v8.1h44.9Z"/>
    <rect x="63.6" y="1.5" width="47.9" height="11.1" fill="#fff"/>
    <path d="M62.1,0H113V14.1H62.1ZM110,3H65.1v8.1H110Z"/>
  </g>
  <g id="vindueI" class="window">
    <rect x="489.3" y="90.95" width="11.1" height="47.9" fill="#fff"/>
    <path d="M501.9,89.45v50.9H487.8V89.45Zm-3,47.9V92.45h-8.1v44.9Z"/>
    <rect x="489.3" y="43.05" width="11.1" height="47.9" fill="#fff"/>
    <path d="M501.9,41.55v50.9H487.8V41.55Zm-3,47.9V44.55h-8.1v44.9Z"/>
  </g>
  <g id="vindueH" class="window">
    <rect x="278.65" y="681.5" width="47.9" height="11.1" fill="#fff"/>
    <path d="M277.15,680h50.9v14.1h-50.9Zm47.9,3h-44.9v8.1h44.9Z"/>
    <rect x="230.75" y="681.5" width="47.9" height="11.1" fill="#fff"/>
    <path d="M229.25,680h50.9v14.1h-50.9Zm47.9,3h-44.9v8.1h44.9Z"/>
  </g>
  <g id="vindueG" class="window">
    <rect x="1.95" y="543.87" width="11.1" height="47.9" fill="#fff"/>
    <path d="M.45,593.27v-50.9h14.1v50.9Zm3-47.9v44.9h8.1v-44.9Z"/>
    <rect x="1.95" y="591.77" width="11.1" height="47.9" fill="#fff"/>
    <path d="M.45,641.17v-50.9h14.1v50.9Zm3-47.9v44.9h8.1v-44.9Z"/>
  </g>
  <g id="vindueF" class="window">
    <rect x="378.9" y="681.5" width="47.9" height="11.1" fill="#fff"/>
    <path d="M377.4,680h50.9v14.1H377.4Zm47.9,3H380.4v8.1h44.9Z"/>
    <rect x="334.06" y="681.5" width="45.08" height="11.1" fill="#fff"/>
    <path d="M332.65,680h47.9v14.1h-47.9Zm45.08,3H335.47v8.1h42.26V683Z"/>
  </g>
  <g id="vindueE" class="window">
    <rect x="1.5" y="119.35" width="11.1" height="47.9" fill="#fff"/>
    <path d="M14.1,117.85v50.9H0v-50.9Zm-3,47.9v-44.9H3v44.9Z"/>
    <rect x="1.5" y="71.45" width="11.1" height="47.9" fill="#fff"/>
    <path d="M14.1,70v50.9H0V70Zm-3,47.9V73H3v44.9Z"/>
  </g>
  <g id="vindueD" class="window">
    <rect x="379.45" y="1.5" width="47.9" height="11.1" fill="#fff"/>
    <path d="M378,0h50.9V14.1H378Zm47.9,3H381v8.1h44.9Z"/>
    <rect x="331.55" y="1.5" width="47.9" height="11.1" fill="#fff"/>
    <path d="M330.05,0H381V14.1H330.1ZM378,3H333.1v8.1H378Z"/>
  </g>
  <g id="vindueC" class="window">
    <rect x="487.8" y="396.95" width="11.1" height="47.9" fill="#fff"/>
    <path d="M500.4,395.45v50.9H486.3v-50.9Zm-3,47.9v-44.9h-8.1v44.9Z"/>
    <rect x="487.8" y="349.05" width="11.1" height="47.9" fill="#fff"/>
    <path d="M500.4,347.55v50.9H486.3v-50.9Zm-3,47.9v-44.9h-8.1v44.9Z"/>
  </g>
  <g id="vindueB" class="window">
    <rect x="489.3" y="540.7" width="11.1" height="47.9" fill="#fff"/>
    <path d="M487.8,590.1V539.2h14.1v50.9Zm3-47.9v44.9h8.1V542.2Z"/>
    <rect x="489.3" y="588.6" width="11.1" height="47.9" fill="#fff"/>
    <path d="M487.8,638V587.1h14.1V638Zm3-47.9V635h8.1V590.1Z"/>
  </g>
  <g id="vindueA" class="window" >
    <rect x="47" y="681.5" width="47.9" height="11.1" fill="#fff"/>
    <path d="M96.4,694.1H45.5V680H96.4Zm-47.9-3H93.4V683H48.5Z"/>
    <rect x="94.9" y="681.5" width="47.9" height="11.1" fill="#fff"/>
    <path d="M144.3,694.1H93.4V680h50.9Zm-47.9-3h44.9V683H96.4Z"/>
  </g>
  <g id="bord-2" class="table">
    <rect x="102.26" y="185.15" width="47.47" height="104.85" />
    <rect x="93.48" y="191.3" width="8.77" height="3.11" />
    <rect x="93.48" y="281.22" width="8.77" height="3.11" />
  </g>
  <g id="bord-1" class="table">
    <rect x="318.42" y="64.03" width="104.85" height="47.47" />
    <rect x="324.55" y="111.5" width="3.11" height="8.77" />
    <rect x="414.48" y="111.5" width="3.11" height="8.77" />
  </g>
  <g id="tv-8" class="tv">
    <rect x="225.34" y="170.43" width="4.38" height="105.42"/>
    <rect x="225.34" y="173.43" width="1.15" height="99.37" fill="#53c2e9"/>
    <rect x="228.67" y="179.11" width="2.1" height="88.04"/>
  </g>
  <g id="tv-7" class="tv">
    <rect x="69.94" y="673.54" width="105.42" height="4.38"/>
    <rect x="72.98" y="673.54" width="99.37" height="1.15" fill="#53c2e9"/>
    <rect x="78.63" y="676.86" width="88.04" height="2.1"/>
  </g>
  <g id="tv-6" class="tv">
    <rect x="369.14" y="317.15" width="105.42" height="4.38"/>
    <rect x="372.14" y="320.39" width="99.37" height="1.15" fill="#53c2e9"/>
    <rect x="377.83" y="316.11" width="88.04" height="2.1"/>
  </g>
  <g id="tv-4" class="tv">
    <rect x="355.5" y="505.08" width="105.42" height="4.38"/>
    <rect x="358.5" y="508.31" width="99.37" height="1.15" fill="#54c2ea"/>
    <rect x="364.19" y="504.03" width="88.04" height="2.1"/>
  </g>
  <g id="tv-2" class="tv">
    <rect x="68.54" y="454.38" width="105.42" height="4.38"/>
    <rect x="71.54" y="457.61" width="99.37" height="1.15" fill="#54c2ea"/>
    <rect x="77.23" y="453.33" width="88.04" height="2.1"/>
  </g>
  <g id="tv-3" class="tv">
    <rect x="372.34" y="481.94" width="105.42" height="4.38"/>
    <rect x="375.38" y="481.94" width="99.37" height="1.15" fill="#54c2ea"/>
    <rect x="381.03" y="485.27" width="88.04" height="2.1"/>
  </g>
  <g id="tv-1" class="tv">
    <rect x="361.77" y="163.04" width="105.42" height="4.38"/>
    <rect x="364.82" y="163.04" width="99.37" height="1.15" fill="#53c2e9"/>
    <rect x="370.46" y="166.37" width="88.04" height="2.1"/>
  </g>
  <g id="sofa-5" class="couch">
    <path d="M486.48,612.7V553.18a10.2,10.2,0,0,0-10.2-10.2H459.05a10.16,10.16,0,0,0-7.21,3,11.51,11.51,0,0,0-3,7.21c-1.1,10.85,3,19.36,2.92,30.18,0,10.27-3.83,20.47-2.92,29.34a11.64,11.64,0,0,0,3,7.21,10.16,10.16,0,0,0,7.21,3h17.23a10.2,10.2,0,0,0,10.2-10.2Z" />
    <path d="M483.67,628.49a7.63,7.63,0,0,0,1.81-5.53,8.9,8.9,0,0,0-2.84-5.92c-3.9-3.55-8.84,0-19.93.09-10.32.06-15.2-3-18.56.43a8.2,8.2,0,0,0-2.25,5.83,8.07,8.07,0,0,0,2.46,5.45c3.18,2.76,7.75.89,18.2.66C475.08,629.22,480.56,631.64,483.67,628.49Z" />
    <path d="M483.67,548.57a7.63,7.63,0,0,0,1.81-5.53,8.9,8.9,0,0,0-2.84-5.92c-3.9-3.55-8.84,0-19.93.09-10.32.06-15.2-3-18.56.43a8.21,8.21,0,0,0-2.25,5.84,8.12,8.12,0,0,0,2.46,5.44c3.18,2.77,7.75.89,18.2.66C475.08,549.3,480.56,551.73,483.67,548.57Z" />
  </g>
  <g id="sofa-4" class="couch">
    <path d="M13.71,204.09v59.52a10.2,10.2,0,0,0,10.19,10.2H41.13a10.16,10.16,0,0,0,7.21-3,11.4,11.4,0,0,0,3-7.21c1.09-10.84-3-19.36-2.93-30.18.06-10.27,3.83-20.47,2.93-29.34a11.64,11.64,0,0,0-3-7.21,10.16,10.16,0,0,0-7.21-3H23.9a10.2,10.2,0,0,0-10.19,10.21Z" />
    <path d="M16.51,188.3a7.76,7.76,0,0,0-1.81,5.54,8.94,8.94,0,0,0,2.85,5.91c3.89,3.56,8.84,0,19.92-.09,10.32-.06,15.2,3,18.56-.43A7.93,7.93,0,0,0,55.9,188l-.07-.07c-3.18-2.76-7.75-.89-18.2-.65C25.1,187.57,19.62,185.15,16.51,188.3Z" />
    <path d="M16.51,268.22a7.73,7.73,0,0,0-1.81,5.53,9,9,0,0,0,2.85,5.92c3.89,3.55,8.84,0,19.92-.09,10.32-.06,15.2,3,18.56-.43a7.93,7.93,0,0,0-.13-11.21l-.07-.07c-3.18-2.76-7.75-.89-18.2-.66C25.1,267.49,19.62,265.06,16.51,268.22Z" />
  </g>
  <g id="sofa-3" class="couch">
    <path d="M410.79,16.73H351.27a10.2,10.2,0,0,0-10.2,10.2h0V44.16a10.16,10.16,0,0,0,3,7.21,11.51,11.51,0,0,0,7.21,3c10.85,1.1,19.36-3,30.18-2.92,10.27,0,20.47,3.83,29.34,2.92a11.64,11.64,0,0,0,7.21-3,10.16,10.16,0,0,0,3-7.21V26.93a10.2,10.2,0,0,0-10.2-10.2Z" />
    <path d="M426.58,19.54A7.65,7.65,0,0,0,421,17.73a8.93,8.93,0,0,0-5.91,2.84c-3.55,3.9,0,8.84.09,19.92.06,10.33-3,15.21.43,18.57a8.2,8.2,0,0,0,5.83,2.25,8.07,8.07,0,0,0,5.45-2.46c2.76-3.18.89-7.75.66-18.2C427.31,28.13,429.73,22.65,426.58,19.54Z" />
    <path d="M346.66,19.54a7.63,7.63,0,0,0-5.53-1.81,8.9,8.9,0,0,0-5.92,2.84c-3.55,3.9,0,8.84.09,19.92.06,10.33-3,15.21.43,18.57a8.21,8.21,0,0,0,5.84,2.25A8.09,8.09,0,0,0,347,58.85c2.77-3.18.89-7.75.66-18.2C347.39,28.13,349.82,22.65,346.66,19.54Z" />
  </g>
  <g id="sofa-2" class="couch">
    <path d="M485.18,108.36l-2.06-59.5A10.19,10.19,0,0,0,472.59,39h0l-17.22.6a10.16,10.16,0,0,0-7.1,3.23,11.46,11.46,0,0,0-2.73,7.31c-.72,10.88,3.65,19.25,4,30.06.3,10.27-3.12,20.59-1.9,29.43a11.64,11.64,0,0,0,3.23,7.1,10.21,10.21,0,0,0,7.31,2.74l17.22-.6A10.2,10.2,0,0,0,485.18,108.36Z" />
    <path d="M482.93,124.23a7.59,7.59,0,0,0,1.61-5.6,8.92,8.92,0,0,0-3-5.81c-4-3.41-8.84.33-19.91.78-10.32.42-15.3-2.46-18.54,1.08a7.92,7.92,0,0,0,.54,11.2l.06.06c3.27,2.65,7.77.62,18.21,0C474.37,125.25,479.93,127.49,482.93,124.23Z" />
    <path d="M480.16,44.36a7.66,7.66,0,0,0,1.61-5.59,9,9,0,0,0-3-5.82c-4-3.41-8.83.33-19.91.78-10.31.42-15.29-2.46-18.53,1.08A7.91,7.91,0,0,0,440.84,46l.09.08c3.27,2.66,7.77.62,18.21,0C471.59,45.39,477.16,47.62,480.16,44.36Z" />
  </g>
  <g id="sofa-1" class="couch">
    <path d="M372.76,678.73h59.53a10.2,10.2,0,0,0,10.2-10.19V651.31a10.16,10.16,0,0,0-3-7.21,11.4,11.4,0,0,0-7.21-3c-10.85-1.09-19.36,3-30.18,2.93-10.27-.06-20.47-3.83-29.35-2.93a11.64,11.64,0,0,0-7.21,3,10.16,10.16,0,0,0-3,7.21v17.23a10.19,10.19,0,0,0,10.19,10.19Z" />
    <path d="M357,675.93a7.73,7.73,0,0,0,5.53,1.81,9,9,0,0,0,5.92-2.85c3.55-3.89,0-8.84-.09-19.92-.06-10.32,3-15.2-.43-18.56a7.93,7.93,0,0,0-11.21.13l-.07.07c-2.76,3.18-.89,7.75-.66,18.2C356.25,667.34,353.82,672.82,357,675.93Z" />
    <path d="M436.9,675.93a7.73,7.73,0,0,0,5.53,1.81,9,9,0,0,0,5.92-2.85c3.55-3.89,0-8.84-.09-19.92-.06-10.32,3-15.2-.43-18.56a8.21,8.21,0,0,0-5.84-2.25,8.13,8.13,0,0,0-5.44,2.45c-2.77,3.18-.89,7.75-.66,18.2C436.17,667.34,433.74,672.82,436.9,675.93Z" />
  </g>
  <g id="bed-4" class="bed">
    <path d="M166.27,557.05V669.62H76.14V557.05a7.3,7.3,0,0,1,7.28-7.32h75.47a7.27,7.27,0,0,1,7.38,7.16Z" fill="#8da2ad"/>
    <rect x="76.14" y="669.55" width="90.13" height="7.53" fill="#3b4a51"/>
    <path d="M152.81,663.18H130.36a6.79,6.79,0,0,1-6.8-6.8h0V646a6.79,6.79,0,0,1,6.79-6.81h22.46a6.79,6.79,0,0,1,6.8,6.8h0v10.42A6.89,6.89,0,0,1,152.81,663.18Z" fill="#b0bfc8"/>
    <path d="M111.25,663.18H88.81A6.79,6.79,0,0,1,82,656.39V646a6.79,6.79,0,0,1,6.79-6.81h22.46a6.79,6.79,0,0,1,6.81,6.79v10.44A6.91,6.91,0,0,1,111.25,663.18Z" fill="#b0bfc8"/>
    <path d="M167.14,626.55V557a11.07,11.07,0,0,0-11.07-11.07H85.77A11.07,11.07,0,0,0,74.69,557h0v69.58Z" fill="#b0bfc8"/>
    <path d="M73.93,628.36V613.88a2.4,2.4,0,0,1,2.39-2.39h89.77a2.4,2.4,0,0,1,2.39,2.39v14.48a2.43,2.43,0,0,1-2.39,2.39H76.32A2.43,2.43,0,0,1,73.93,628.36Z" fill="#e0e9ec"/>
  </g>
  <g id="bed-3" class="bed">
    <path d="M378.13,437.81V325.23h90.14V437.81a7.3,7.3,0,0,1-7.29,7.31H385.52a7.27,7.27,0,0,1-7.39-7.15Z" fill="#8da2ad"/>
    <rect x="378.13" y="317.77" width="90.13" height="7.53" fill="#3b4a51"/>
    <path d="M391.6,331.67H414a6.79,6.79,0,0,1,6.81,6.79V348.9a6.79,6.79,0,0,1-6.79,6.81H391.6a6.79,6.79,0,0,1-6.81-6.79V338.48A6.9,6.9,0,0,1,391.6,331.67Z" fill="#b0bfc8"/>
    <path d="M433.15,331.67H455.6a6.79,6.79,0,0,1,6.8,6.8h0V348.9a6.79,6.79,0,0,1-6.79,6.81H433.15a6.79,6.79,0,0,1-6.8-6.8h0V338.48A6.89,6.89,0,0,1,433.15,331.67Z" fill="#b0bfc8"/>
    <path d="M377.26,368.31v69.57A11.1,11.1,0,0,0,388.32,449h70.32a11.08,11.08,0,0,0,11.07-11.08V368.31Z" fill="#b0bfc8"/>
    <path d="M470.48,366.5V381a2.41,2.41,0,0,1-2.38,2.39H378.31a2.43,2.43,0,0,1-2.39-2.39V366.5a2.4,2.4,0,0,1,2.39-2.39h89.78A2.4,2.4,0,0,1,470.48,366.5Z" fill="#e0e9ec"/>
  </g>
  <g id="bed-2" class="bed">
    <path d="M77.58,571.79V459.22h90.14V571.79a7.29,7.29,0,0,1-7.27,7.31H85a7.26,7.26,0,0,1-7.42-7.1Z" fill="#8da2ad"/>
    <rect x="77.58" y="451.76" width="90.13" height="7.53" fill="#3b4a51"/>
    <path d="M91.05,465.66h22.44a6.79,6.79,0,0,1,6.81,6.79h0v10.43a6.79,6.79,0,0,1-6.8,6.8H91.05a6.79,6.79,0,0,1-6.81-6.79h0V472.46A6.89,6.89,0,0,1,91.05,465.66Z" fill="#b0bfc8"/>
    <path d="M132.6,465.66h22.45a6.79,6.79,0,0,1,6.8,6.78v10.45a6.79,6.79,0,0,1-6.78,6.8H132.6a6.79,6.79,0,0,1-6.8-6.78V472.46A6.89,6.89,0,0,1,132.6,465.66Z" fill="#b0bfc8"/>
    <path d="M76.71,502.29v69.57a11.08,11.08,0,0,0,11.08,11.08h70.3a11.07,11.07,0,0,0,11.07-11.07h0V502.29Z" fill="#b0bfc8"/>
    <path d="M169.92,500.48V515a2.41,2.41,0,0,1-2.38,2.39H77.76A2.43,2.43,0,0,1,75.37,515V500.48a2.43,2.43,0,0,1,2.39-2.39h89.78A2.41,2.41,0,0,1,169.92,500.48Z" fill="#e0e9ec"/>
  </g>
  <g id="bed-1" class="bed">
    <path d="M469,369.61V482.18H378.85V369.61a7.28,7.28,0,0,1,7.25-7.31h75.5a7.25,7.25,0,0,1,7.4,7.1Z" fill="#8da2ad"/>
    <rect x="378.85" y="482.11" width="90.13" height="7.53" fill="#3b4a51"/>
    <path d="M455.51,475.74H433.07a6.79,6.79,0,0,1-6.8-6.78V458.51a6.79,6.79,0,0,1,6.78-6.8h22.46a6.79,6.79,0,0,1,6.81,6.79h0v10.43A6.89,6.89,0,0,1,455.51,475.74Z" fill="#b0bfc8"/>
    <path d="M414,475.74H391.52a6.79,6.79,0,0,1-6.81-6.79h0V458.51a6.79,6.79,0,0,1,6.8-6.8H414a6.79,6.79,0,0,1,6.8,6.78v10.45A6.89,6.89,0,0,1,414,475.74Z" fill="#b0bfc8"/>
    <path d="M469.85,439.11V369.54a11.08,11.08,0,0,0-11.08-11.08H388.48a11.07,11.07,0,0,0-11.08,11.06v69.59Z" fill="#b0bfc8"/>
    <path d="M376.64,440.92V426.44a2.4,2.4,0,0,1,2.39-2.39H468.8a2.43,2.43,0,0,1,2.39,2.39v14.48a2.43,2.43,0,0,1-2.39,2.39H379A2.42,2.42,0,0,1,376.64,440.92Z" fill="#e0e9ec"/>
  </g>
  <g id="wash-4" >
    <path d="M27.79,430.13h16.5a8.89,8.89,0,0,0,8.86-8.87V396.32a9,9,0,0,0-8.86-8.95H27.79a8.89,8.89,0,0,0-8.86,8.94h0v24.94a8.83,8.83,0,0,0,8.79,8.87Z" fill="#c6cdc8"/>
    <path d="M27.63,408.79h0a3,3,0,0,0-3-3H13.35v6.08H24.59a3,3,0,0,0,3-3Z" fill="#6e6f72"/>
    <circle cx="36" cy="408.79" r="5.17" transform="translate(-373.32 438.19) rotate(-89.08)" fill="#010101"/>
  </g>
  <g id="wash-3">
    <path d="M396.55,285.88V266.29a10.37,10.37,0,0,0-10.14-10.53H357.88a10.37,10.37,0,0,0-10.14,10.53v19.59a10.36,10.36,0,0,0,10.14,10.52h28.53c5.54.1,10.14-4.68,10.14-10.52Z" fill="#c6cdc8"/>
    <path d="M372.14,286.07h0a3.51,3.51,0,0,0-3.47,3.51V303h6.95V289.68a3.54,3.54,0,0,0-3.47-3.61Z" fill="#6e6f72"/>
    <ellipse cx="372.14" cy="276.13" rx="5.91" ry="6.14" fill="#010101"/>
  </g>
  <g id="handwash-1" class="handwash">
    <rect id="plate-1-2" x="311.99" y="243.88" width="120.31" height="58.83" />
  </g>
  <g id="bord-2-2">
    <rect x="244.47" y="611.6" width="104.85" height="47.47" />
    <rect x="340.07" y="602.83" width="3.11" height="8.77" />
    <rect x="250.14" y="602.83" width="3.11" height="8.77" />
  </g>
</svg>
