<svg xmlns="http://www.w3.org/2000/svg" viewBox="0 0 130.6 181.2">
  <g id="Lag_2" data-name="Lag 2">
    <g id="Lag_1-2" data-name="Lag 1">
      <g id="bed">
        <path d="M3.05,165.8V10.3h124.5V165.8a10.07,10.07,0,0,1-10.1,10.1H13.25A10,10,0,0,1,3.05,165.8Z" fill="#8fa3af"/>
        <rect x="3.05" width="124.5" height="10.4" fill="#3b4b52"/>
        <g>
          <path d="M21.65,19.2h31a9.39,9.39,0,0,1,9.4,9.4V43a9.39,9.39,0,0,1-9.4,9.4h-31a9.39,9.39,0,0,1-9.4-9.4V28.6A9.52,9.52,0,0,1,21.65,19.2Z" fill="#b1c0c9"/>
          <path d="M79.05,19.2h31a9.39,9.39,0,0,1,9.4,9.4V43a9.39,9.39,0,0,1-9.4,9.4h-31a9.39,9.39,0,0,1-9.4-9.4V28.6A9.52,9.52,0,0,1,79.05,19.2Z" fill="#b1c0c9"/>
        </g>
        <path d="M1.85,69.8v96.1a15.3,15.3,0,0,0,15.3,15.3h97.1a15.3,15.3,0,0,0,15.3-15.3V69.8Z" fill="#b1c0c9"/>
        <path d="M130.6,67.3v20a3.33,3.33,0,0,1-3.3,3.3H3.3A3.33,3.33,0,0,1,0,87.3v-20A3.33,3.33,0,0,1,3.3,64h124A3.33,3.33,0,0,1,130.6,67.3Z" fill="#e1eaee"/>
      </g>
    </g>
  </g>
</svg>
