<svg xmlns="http://www.w3.org/2000/svg" viewBox="0 0 125.5 77.6">
  <g id="Lag_2" data-name="Lag 2">
    <g id="Lag_1-2" data-name="Lag 1">
      <g id="carpetRoomAc">
        <polyline id="colorChange-7" points="120.2 7.5 5.5 7.5 5.5 76 120.2 76" fill="#2a6b7f"/>
        <path d="M123.9,56.6c-1.1,0-2.1,1.4-2.7,3.2a25.9,25.9,0,0,0-1,6.1c.3-3.6.7-7.4,2.1-9.8l-.3.8a2,2,0,0,1,2.1-.8" fill="#2a6b7f"/>
        <path d="M123.2,68c-.9.1-1.7,1.3-2.2,2.8a22.55,22.55,0,0,0-.8,5.2c.2-3,.5-6.2,1.6-8.3l-.2.7a1.69,1.69,0,0,1,1.7-.8" fill="#2a6b7f"/>
        <path d="M123.9,31.1c-1.1-.1-2.1,1.3-2.7,3a25.22,25.22,0,0,0-1.1,6.1c.4-3.5.8-7.4,2.2-9.7l-.3.8a1.9,1.9,0,0,1,2.1-.7" fill="#2a6b7f"/>
        <path d="M123.9,42.8c-1.1-.1-2.1,1.1-2.8,2.9a30.38,30.38,0,0,0-1.2,6c.4-3.5.9-7.3,2.4-9.6l-.3.8a1.9,1.9,0,0,1,2.1-.6" fill="#2a6b7f"/>
        <path d="M123.8,49.6c-1.1,0-2.1,1.3-2.7,3.1a25.22,25.22,0,0,0-1.1,6.1c.4-3.6.8-7.4,2.1-9.8l-.3.8a2,2,0,0,1,2.1-.8" fill="#2a6b7f"/>
        <path d="M123.8,21.5c-1.1,0-2.1,1.4-2.7,3.2a25.9,25.9,0,0,0-1,6.1c.3-3.6.7-7.4,2-9.8l-.3.8a2.2,2.2,0,0,1,2.1-.9" fill="#2a6b7f"/>
        <path d="M123.7,63.6c-.9-.1-1.8.9-2.3,2.3a21.12,21.12,0,0,0-1,5c.4-2.9.8-6.1,2-7.9l-.3.6a1.53,1.53,0,0,1,1.8-.4" fill="#2a6b7f"/>
        <path d="M124.3,6.3c-1.1-.4-2.2.6-2.9,2.1a21.92,21.92,0,0,0-1.6,5.7c.6-3.4,1.4-7,2.9-8.9l-.4.7a1.81,1.81,0,0,1,2.1-.1" fill="#2a6b7f"/>
        <path d="M124,12.8c-1.1-.2-2.1,1.1-2.8,2.8a20.64,20.64,0,0,0-1.2,6c.5-3.5,1-7.3,2.4-9.5l-.3.8a1.86,1.86,0,0,1,2.1-.5" fill="#2a6b7f"/>
        <path d="M123.8,37.8c-.9-.4-1.8.4-2.5,1.7a19.54,19.54,0,0,0-1.4,4.7c.6-2.8,1.2-5.8,2.5-7.3l-.3.6a1.5,1.5,0,0,1,1.8,0" fill="#2a6b7f"/>
        <path d="M123.2,53.6c-.9.1-1.7,1.3-2.2,2.8a22.55,22.55,0,0,0-.8,5.2c.2-3,.5-6.2,1.6-8.3l-.2.7a1.69,1.69,0,0,1,1.7-.8" fill="#2a6b7f"/>
        <path d="M123.2,17.8c-.9.1-1.7,1.3-2.2,2.8a22.55,22.55,0,0,0-.8,5.2c.2-3,.5-6.2,1.6-8.3l-.2.7a1.69,1.69,0,0,1,1.7-.8" fill="#2a6b7f"/>
        <path d="M123.2,26.7c-.9.1-1.7,1.3-2.2,2.8a22.55,22.55,0,0,0-.8,5.2c.2-3,.5-6.2,1.6-8.3l-.2.7a1.84,1.84,0,0,1,1.8-.8" fill="#2a6b7f"/>
        <path d="M123.4.6c-.9-.1-1.8.9-2.3,2.3a17.09,17.09,0,0,0-1,5c.4-2.9.8-6.1,2-7.9l-.3.6a1.53,1.53,0,0,1,1.8-.4" fill="#2a6b7f"/>
        <path d="M1.5,14.1c.9.4,1.8-.3,2.5-1.6A15.28,15.28,0,0,0,5.4,7.9c-.6,2.8-1.3,5.8-2.6,7.2l.3-.6a1.5,1.5,0,0,1-1.8-.1" fill="#2a6b7f"/>
        <path d="M1.5,26.6c.9.4,1.8-.3,2.5-1.6a15.28,15.28,0,0,0,1.4-4.6c-.6,2.8-1.3,5.8-2.6,7.2l.3-.5A1.5,1.5,0,0,1,1.3,27" fill="#2a6b7f"/>
        <path d="M1.5,19.4c.9.4,1.8-.3,2.5-1.6a15.28,15.28,0,0,0,1.4-4.6C4.8,16,4.1,19,2.8,20.4l.3-.5a1.5,1.5,0,0,1-1.8-.1" fill="#2a6b7f"/>
        <path d="M1.5,30.6c.9.4,1.8-.4,2.5-1.6a15.28,15.28,0,0,0,1.4-4.6c-.6,2.8-1.3,5.8-2.6,7.2l.3-.6a1.5,1.5,0,0,1-1.8-.1" fill="#2a6b7f"/>
        <path d="M1.5,40.7c.9.4,1.8-.3,2.5-1.6a15.28,15.28,0,0,0,1.4-4.6c-.6,2.8-1.3,5.8-2.6,7.2l.3-.5a1.5,1.5,0,0,1-1.8-.1" fill="#2a6b7f"/>
        <path d="M1.5,36c.9.4,1.8-.4,2.5-1.6a15.28,15.28,0,0,0,1.4-4.6c-.6,2.8-1.3,5.8-2.6,7.2l.3-.5a1.5,1.5,0,0,1-1.8-.1" fill="#2a6b7f"/>
        <path d="M1.5,24.3c.9.4,1.8-.4,2.5-1.6a15.28,15.28,0,0,0,1.4-4.6c-.6,2.8-1.3,5.8-2.6,7.2l.3-.5a1.5,1.5,0,0,1-1.8-.1" fill="#2a6b7f"/>
        <path d="M.4,7.5c.6,1.4,1.5,2,2.4,1.8A5.07,5.07,0,0,0,5.3,7.5C4,8.9,2.5,10.4,1,9.9h.4A4.25,4.25,0,0,1,0,7.6" fill="#2a6b7f"/>
        <path d="M1.5,45.3c.9.4,1.8-.3,2.5-1.6a15.28,15.28,0,0,0,1.4-4.6c-.6,2.8-1.3,5.8-2.6,7.2l.3-.6a1.5,1.5,0,0,1-1.8-.1" fill="#2a6b7f"/>
        <path d="M1.5,57.9c.9.4,1.8-.4,2.5-1.6a15.28,15.28,0,0,0,1.4-4.6c-.6,2.8-1.3,5.8-2.6,7.2l.3-.5a1.5,1.5,0,0,1-1.8-.1" fill="#2a6b7f"/>
        <path d="M1.5,50.7c.9.4,1.8-.4,2.5-1.6a15.28,15.28,0,0,0,1.4-4.6c-.6,2.8-1.3,5.8-2.6,7.2l.3-.6A1.5,1.5,0,0,1,1.3,51" fill="#2a6b7f"/>
        <path d="M1.5,61.9c.9.4,1.8-.3,2.5-1.6a15.28,15.28,0,0,0,1.4-4.6c-.6,2.8-1.3,5.8-2.6,7.2l.3-.5a1.5,1.5,0,0,1-1.8-.1" fill="#2a6b7f"/>
        <path d="M1.5,72c.9.4,1.8-.4,2.5-1.6a15.28,15.28,0,0,0,1.4-4.6c-.6,2.8-1.3,5.8-2.6,7.2l.3-.5a1.5,1.5,0,0,1-1.8-.1" fill="#2a6b7f"/>
        <path d="M1.5,67.3c.9.4,1.8-.4,2.5-1.6a15.28,15.28,0,0,0,1.4-4.6c-.6,2.8-1.3,5.8-2.6,7.2l.3-.6a1.5,1.5,0,0,1-1.8-.1" fill="#2a6b7f"/>
        <path d="M1.5,55.6c.9.4,1.8-.4,2.5-1.6a15.28,15.28,0,0,0,1.4-4.6c-.6,2.8-1.3,5.8-2.6,7.2l.3-.6a1.5,1.5,0,0,1-1.8-.1" fill="#2a6b7f"/>
        <path d="M1.5,76.6c.9.4,1.8-.4,2.5-1.6a15.28,15.28,0,0,0,1.4-4.6c-.6,2.8-1.3,5.8-2.6,7.2l.3-.5A1.5,1.5,0,0,1,1.3,77" fill="#2a6b7f"/>
        <path d="M125.2,77.5c-.5-1.6-1.4-2.5-2.3-2.6a3.54,3.54,0,0,0-2.6,1c1.4-1,3-2,4.4-1.1l-.4-.1a6.6,6.6,0,0,1,1.2,2.7" fill="#2a6b7f"/>
      </g>
    </g>
  </g>
</svg>
