<svg xmlns="http://www.w3.org/2000/svg" viewBox="0 0 73.01 34.34">
  <g id="Lag_2" data-name="Lag 2">
    <g id="Lag_1-2" data-name="Lag 1">
      <g id="sofa">
        <path d="M13.58,34.34H59.43a7.85,7.85,0,0,0,7.85-7.85V13.22A7.8,7.8,0,0,0,65,7.66a8.83,8.83,0,0,0-5.55-2.3c-8.35-.84-14.92,2.3-23.25,2.25-7.91,0-15.77-2.94-22.6-2.25A9,9,0,0,0,8,7.66a7.85,7.85,0,0,0-2.3,5.56V26.49A7.86,7.86,0,0,0,13.58,34.34Z" fill="#2a6a7e"/>
        <path d="M1.42,32.18a5.89,5.89,0,0,0,4.26,1.39,6.84,6.84,0,0,0,4.56-2.19c2.74-3,0-6.81-.07-15.34-.05-8,2.3-11.72-.33-14.3A6.32,6.32,0,0,0,5.34,0,6.25,6.25,0,0,0,1.15,1.9c-2.13,2.45-.68,6-.51,14C.86,25.56-1,29.79,1.42,32.18Z" fill="#2a6a7e"/>
        <path d="M63,32.18a5.89,5.89,0,0,0,4.26,1.39,6.84,6.84,0,0,0,4.56-2.19c2.74-3,0-6.81-.07-15.34,0-8,2.3-11.72-.33-14.3A6.32,6.32,0,0,0,66.9,0a6.25,6.25,0,0,0-4.19,1.9c-2.13,2.45-.68,6-.51,14C62.42,25.56,60.55,29.79,63,32.18Z" fill="#2a6a7e"/>
      </g>
    </g>
  </g>
</svg>
