<svg xmlns="http://www.w3.org/2000/svg" viewBox="0 0 125.5 38.7">
  <g id="Layer_2" data-name="Layer 2">
    <g id="Lag_1" data-name="Lag 1">
      <g id="carpetRoomB">
        <polyline id="colorChange" points="120.2 3.7 5.5 3.7 5.5 37.9 120.2 37.9" fill="#2a6b7f"/>
        <path d="M123.9,28.3a3.38,3.38,0,0,0-2.7,1.6,8.21,8.21,0,0,0-1.1,3.1c.3-1.8.7-3.7,2.1-4.9l-.3.4a3.08,3.08,0,0,1,2.1-.4" fill="#2a6b7f"/>
        <path d="M123.2,33.9a3,3,0,0,0-2.2,1.4,7.86,7.86,0,0,0-.8,2.6,7,7,0,0,1,1.6-4.2l-.2.3a2.69,2.69,0,0,1,1.8-.4" fill="#2a6b7f"/>
        <path d="M123.9,15.5a3.28,3.28,0,0,0-2.7,1.5,6.42,6.42,0,0,0-1.1,3c.4-1.8.8-3.7,2.2-4.8l-.3.4a3.08,3.08,0,0,1,2.1-.4" fill="#2a6b7f"/>
        <path d="M123.9,21.4a3.5,3.5,0,0,0-2.8,1.4,7.89,7.89,0,0,0-1.2,3c.4-1.8.9-3.7,2.4-4.8l-.3.4a3.86,3.86,0,0,1,2.1-.3" fill="#2a6b7f"/>
        <path d="M123.8,24.8a3.15,3.15,0,0,0-2.7,1.6,7.74,7.74,0,0,0-1.1,3c.4-1.8.8-3.7,2.1-4.9l-.3.4a3.08,3.08,0,0,1,2.1-.4" fill="#2a6b7f"/>
        <path d="M123.8,10.7a3.66,3.66,0,0,0-2.7,1.6,8.08,8.08,0,0,0-1,3.1c.3-1.8.7-3.7,2-4.9l-.3.4a3.08,3.08,0,0,1,2.1-.4" fill="#2a6b7f"/>
        <path d="M123.7,31.7a2.68,2.68,0,0,0-2.3,1.2,7.07,7.07,0,0,0-1.1,2.5,7.27,7.27,0,0,1,2-4l-.3.3a2.25,2.25,0,0,1,1.8-.2" fill="#2a6b7f"/>
        <path d="M124.3,3.1a3,3,0,0,0-2.9,1.1A7.85,7.85,0,0,0,119.8,7c.6-1.7,1.4-3.5,2.9-4.4l-.4.3a3.75,3.75,0,0,1,2.1,0" fill="#2a6b7f"/>
        <path d="M124,6.4a3.5,3.5,0,0,0-2.8,1.4,8.06,8.06,0,0,0-1.3,3c.5-1.8,1-3.6,2.4-4.7l-.3.4a3.86,3.86,0,0,1,2.1-.3" fill="#2a6b7f"/>
        <path d="M123.8,18.8a3.29,3.29,0,0,0-2.5.8,7.89,7.89,0,0,0-1.4,2.3c.6-1.4,1.2-2.9,2.5-3.7l-.3.3a2.77,2.77,0,0,1,1.8,0" fill="#2a6b7f"/>
        <path d="M123.2,26.7a3,3,0,0,0-2.2,1.4,7.86,7.86,0,0,0-.8,2.6,7,7,0,0,1,1.6-4.2l-.2.3a2.69,2.69,0,0,1,1.8-.4" fill="#2a6b7f"/>
        <path d="M123.2,8.8a3,3,0,0,0-2.2,1.4,7.86,7.86,0,0,0-.8,2.6,7,7,0,0,1,1.6-4.2l-.2.3a2.69,2.69,0,0,1,1.8-.4" fill="#2a6b7f"/>
        <path d="M123.2,13.3a3,3,0,0,0-2.2,1.4,6.07,6.07,0,0,0-.8,2.6,7,7,0,0,1,1.6-4.2l-.2.3a2.69,2.69,0,0,1,1.8-.4" fill="#2a6b7f"/>
        <path d="M123.4.3a2.68,2.68,0,0,0-2.3,1.2A7.07,7.07,0,0,0,120,4a7.27,7.27,0,0,1,2-4l-.3.3a2.82,2.82,0,0,1,1.8-.2" fill="#2a6b7f"/>
        <path d="M1.5,7A2.67,2.67,0,0,0,4,6.2,6.78,6.78,0,0,0,5.4,3.9C4.8,5.3,4.1,6.8,2.8,7.5l.3-.3a2.77,2.77,0,0,1-1.8,0" fill="#2a6b7f"/>
        <path d="M1.5,13.3A2.67,2.67,0,0,0,4,12.5a6.78,6.78,0,0,0,1.4-2.3c-.6,1.4-1.3,2.9-2.6,3.6l.3-.3a2.78,2.78,0,0,1-1.8,0" fill="#2a6b7f"/>
        <path d="M1.5,9.7A2.67,2.67,0,0,0,4,8.9,6.78,6.78,0,0,0,5.4,6.6C4.8,8,4.1,9.5,2.8,10.2l.3-.3a2.77,2.77,0,0,1-1.8,0" fill="#2a6b7f"/>
        <path d="M1.5,15.3A2.67,2.67,0,0,0,4,14.5a6.78,6.78,0,0,0,1.4-2.3c-.6,1.4-1.3,2.9-2.6,3.6l.3-.3a2.78,2.78,0,0,1-1.8,0" fill="#2a6b7f"/>
        <path d="M1.5,20.3A2.67,2.67,0,0,0,4,19.5a6.78,6.78,0,0,0,1.4-2.3c-.6,1.4-1.3,2.9-2.6,3.6l.3-.3a2.78,2.78,0,0,1-1.8,0" fill="#2a6b7f"/>
        <path d="M1.5,17.9A2.67,2.67,0,0,0,4,17.1a6.78,6.78,0,0,0,1.4-2.3c-.6,1.4-1.3,2.9-2.6,3.6l.3-.3a2.78,2.78,0,0,1-1.8,0" fill="#2a6b7f"/>
        <path d="M1.5,12.1A2.67,2.67,0,0,0,4,11.3,6.78,6.78,0,0,0,5.4,9c-.6,1.4-1.3,2.9-2.6,3.6l.3-.3a2.78,2.78,0,0,1-1.8,0" fill="#2a6b7f"/>
        <path d="M.4,3.7a2.72,2.72,0,0,0,2.4.9,5.38,5.38,0,0,0,2.5-.9C4,4.4,2.5,5.2,1,4.9h.4A2.36,2.36,0,0,1,0,3.7" fill="#2a6b7f"/>
        <path d="M1.5,22.6A2.67,2.67,0,0,0,4,21.8a6.78,6.78,0,0,0,1.4-2.3c-.6,1.4-1.3,2.9-2.6,3.6l.3-.3a2.77,2.77,0,0,1-1.8,0" fill="#2a6b7f"/>
        <path d="M1.5,28.9A2.67,2.67,0,0,0,4,28.1a6.78,6.78,0,0,0,1.4-2.3c-.6,1.4-1.3,2.9-2.6,3.6l.3-.3a2.78,2.78,0,0,1-1.8,0" fill="#2a6b7f"/>
        <path d="M1.5,25.3A2.67,2.67,0,0,0,4,24.5a6.78,6.78,0,0,0,1.4-2.3c-.6,1.4-1.3,2.9-2.6,3.6l.3-.3a2.78,2.78,0,0,1-1.8,0" fill="#2a6b7f"/>
        <path d="M1.5,30.9A2.67,2.67,0,0,0,4,30.1a6.78,6.78,0,0,0,1.4-2.3c-.6,1.4-1.3,2.9-2.6,3.6l.3-.3a2.78,2.78,0,0,1-1.8,0" fill="#2a6b7f"/>
        <path d="M1.5,35.9A2.67,2.67,0,0,0,4,35.1a6.78,6.78,0,0,0,1.4-2.3c-.6,1.4-1.3,2.9-2.6,3.6l.3-.3a2.78,2.78,0,0,1-1.8,0" fill="#2a6b7f"/>
        <path d="M1.5,33.6A2.67,2.67,0,0,0,4,32.8a6.78,6.78,0,0,0,1.4-2.3c-.6,1.4-1.3,2.9-2.6,3.6l.3-.3a2.77,2.77,0,0,1-1.8,0" fill="#2a6b7f"/>
        <path d="M1.5,27.7A2.67,2.67,0,0,0,4,26.9a6.78,6.78,0,0,0,1.4-2.3c-.6,1.4-1.3,2.9-2.6,3.6l.3-.3a2.77,2.77,0,0,1-1.8,0" fill="#2a6b7f"/>
        <path d="M1.5,38.2A2.67,2.67,0,0,0,4,37.4a6.78,6.78,0,0,0,1.4-2.3c-.6,1.4-1.3,2.9-2.6,3.6l.3-.3a2.78,2.78,0,0,1-1.8,0" fill="#2a6b7f"/>
        <path d="M125.2,38.7a2.65,2.65,0,0,0-2.3-1.3,7.51,7.51,0,0,0-2.6.5c1.4-.5,3-1,4.4-.5h-.4a3.74,3.74,0,0,1,1.2,1.3" fill="#2a6b7f"/>
      </g>
    </g>
  </g>
</svg>
