<svg xmlns="http://www.w3.org/2000/svg" viewBox="0 0 38.8 125.3">
  <g id="Lag_2" data-name="Lag 2">
    <g id="Lag_1-2" data-name="Lag 1">
      <g id="carpetHallway">
        <polyline id="colorChange-3" points="35.1 120.2 35.1 5.5 0.9 5.5 0.9 120.2" fill="#2a6b7f"/>
        <path d="M10.5,123.9a3.38,3.38,0,0,0-1.6-2.7,6.68,6.68,0,0,0-3.1-1c1.8.3,3.7.7,4.9,2.1l-.4-.3a3.08,3.08,0,0,1,.4,2.1" fill="#2a6b7f"/>
        <path d="M4.9,123.2A3,3,0,0,0,3.5,121a7.86,7.86,0,0,0-2.6-.8c1.5.2,3.1.5,4.1,1.6l-.3-.2a2.69,2.69,0,0,1,.4,1.8" fill="#2a6b7f"/>
        <path d="M23.3,123.9a3.28,3.28,0,0,0-1.5-2.7,6.42,6.42,0,0,0-3-1.1c1.8.4,3.7.8,4.8,2.2l-.4-.3a3.08,3.08,0,0,1,.4,2.1" fill="#2a6b7f"/>
        <path d="M17.5,123.9a3.5,3.5,0,0,0-1.4-2.8,7.89,7.89,0,0,0-3-1.2c1.8.4,3.7.9,4.8,2.3l-.4-.3a3.86,3.86,0,0,1,.3,2.1" fill="#2a6b7f"/>
        <path d="M14,123.8a3.15,3.15,0,0,0-1.6-2.7,8.38,8.38,0,0,0-3-1.1c1.8.3,3.7.8,4.9,2.1l-.4-.3a3.08,3.08,0,0,1,.4,2.1" fill="#2a6b7f"/>
        <path d="M28.1,123.8a3.66,3.66,0,0,0-1.6-2.7,6.68,6.68,0,0,0-3.1-1c1.8.3,3.7.7,4.9,2l-.4-.3a3.08,3.08,0,0,1,.4,2.1" fill="#2a6b7f"/>
        <path d="M7.1,123.7a2.68,2.68,0,0,0-1.2-2.3,7.45,7.45,0,0,0-2.4-1.1,7.27,7.27,0,0,1,4,2l-.3-.3a2.25,2.25,0,0,1,.2,1.8" fill="#2a6b7f"/>
        <path d="M35.7,124.3a3,3,0,0,0-1.1-2.9,7.85,7.85,0,0,0-2.8-1.6c1.7.7,3.5,1.4,4.4,3l-.3-.4a4.11,4.11,0,0,1,0,2.2" fill="#2a6b7f"/>
        <path d="M32.5,124a3.37,3.37,0,0,0-1.4-2.8,6.56,6.56,0,0,0-3-1.2c1.8.5,3.6,1,4.7,2.4l-.4-.3a3.86,3.86,0,0,1,.3,2.1" fill="#2a6b7f"/>
        <path d="M20,123.8a3,3,0,0,0-.9-2.5,7.89,7.89,0,0,0-2.3-1.4c1.4.6,2.9,1.2,3.7,2.5l-.3-.3a2.77,2.77,0,0,1,0,1.8" fill="#2a6b7f"/>
        <path d="M12.1,123.2a3,3,0,0,0-1.4-2.2,7.86,7.86,0,0,0-2.6-.8,7,7,0,0,1,4.2,1.6l-.4-.2a2.69,2.69,0,0,1,.4,1.8" fill="#2a6b7f"/>
        <path d="M30,123.2a3,3,0,0,0-1.4-2.2,7.86,7.86,0,0,0-2.6-.8,7,7,0,0,1,4.2,1.6l-.3-.2a2.69,2.69,0,0,1,.4,1.8" fill="#2a6b7f"/>
        <path d="M25.5,123.2a3,3,0,0,0-1.4-2.2,7.86,7.86,0,0,0-2.6-.8c1.5.2,3.1.5,4.1,1.6l-.3-.2a2.69,2.69,0,0,1,.4,1.8" fill="#2a6b7f"/>
        <path d="M38.5,123.4a2.68,2.68,0,0,0-1.2-2.3,7.71,7.71,0,0,0-2.5-1,7.27,7.27,0,0,1,4,2l-.3-.3a2.82,2.82,0,0,1,.2,1.8" fill="#2a6b7f"/>
        <path d="M31.8,1.4a2.67,2.67,0,0,0,.8,2.5,6.78,6.78,0,0,0,2.3,1.4C33.5,4.7,32,4,31.3,2.7l.3.3a2.77,2.77,0,0,1,0-1.8" fill="#2a6b7f"/>
        <path d="M25.5,1.4a2.67,2.67,0,0,0,.8,2.5,6.78,6.78,0,0,0,2.3,1.4C27.2,4.7,25.7,4,25,2.7l.3.3a2.78,2.78,0,0,1,0-1.8" fill="#2a6b7f"/>
        <path d="M29.1,1.4a2.67,2.67,0,0,0,.8,2.5,6.78,6.78,0,0,0,2.3,1.4c-1.4-.6-2.9-1.3-3.6-2.6l.3.3a2.78,2.78,0,0,1,0-1.8" fill="#2a6b7f"/>
        <path d="M23.6,1.4a2.67,2.67,0,0,0,.8,2.5,6.78,6.78,0,0,0,2.3,1.4c-1.4-.6-2.9-1.3-3.6-2.6l.3.3a2.78,2.78,0,0,1,0-1.8" fill="#2a6b7f"/>
        <path d="M18.5,1.4a2.67,2.67,0,0,0,.8,2.5,6.78,6.78,0,0,0,2.3,1.4C20.2,4.7,18.7,4,18,2.7l.3.3a2.78,2.78,0,0,1,0-1.8" fill="#2a6b7f"/>
        <path d="M20.9,1.4a2.67,2.67,0,0,0,.8,2.5A6.78,6.78,0,0,0,24,5.3c-1.4-.6-2.9-1.3-3.6-2.6l.3.3a2.77,2.77,0,0,1,0-1.8" fill="#2a6b7f"/>
        <path d="M26.7,1.4a2.67,2.67,0,0,0,.8,2.5,6.78,6.78,0,0,0,2.3,1.4c-1.4-.6-2.9-1.3-3.6-2.6l.3.3a2.78,2.78,0,0,1,0-1.8" fill="#2a6b7f"/>
        <path d="M35.1.4a2.72,2.72,0,0,0-.9,2.4,5.38,5.38,0,0,0,.9,2.5C34.4,4,33.6,2.5,33.9,1v.4A2.59,2.59,0,0,1,35,0" fill="#2a6b7f"/>
        <path d="M16.2,1.4A2.67,2.67,0,0,0,17,3.9a6.78,6.78,0,0,0,2.3,1.4c-1.4-.6-2.9-1.3-3.6-2.6L16,3a2.78,2.78,0,0,1,0-1.8" fill="#2a6b7f"/>
        <path d="M9.9,1.4a2.67,2.67,0,0,0,.8,2.5A6.78,6.78,0,0,0,13,5.3C11.6,4.7,10.1,4,9.4,2.7l.3.3a2.78,2.78,0,0,1,0-1.8" fill="#2a6b7f"/>
        <path d="M13.5,1.4a2.67,2.67,0,0,0,.8,2.5,6.78,6.78,0,0,0,2.3,1.4C15.2,4.7,13.7,4,13,2.7l.3.3a2.77,2.77,0,0,1,0-1.8" fill="#2a6b7f"/>
        <path d="M7.9,1.4a2.67,2.67,0,0,0,.8,2.5A6.78,6.78,0,0,0,11,5.3C9.6,4.7,8.1,4,7.4,2.7l.3.3a2.78,2.78,0,0,1,0-1.8" fill="#2a6b7f"/>
        <path d="M2.9,1.4a2.67,2.67,0,0,0,.8,2.5A6.78,6.78,0,0,0,6,5.3C4.6,4.7,3.1,4,2.4,2.7l.3.3a2.77,2.77,0,0,1,0-1.8" fill="#2a6b7f"/>
        <path d="M5.2,1.4A2.67,2.67,0,0,0,6,3.9,6.78,6.78,0,0,0,8.3,5.3C6.9,4.7,5.4,4,4.7,2.7L5,3A2.77,2.77,0,0,1,5,1.2" fill="#2a6b7f"/>
        <path d="M11.1,1.4a2.67,2.67,0,0,0,.8,2.5,6.78,6.78,0,0,0,2.3,1.4c-1.4-.6-2.9-1.3-3.6-2.6l.3.3a2.77,2.77,0,0,1,0-1.8" fill="#2a6b7f"/>
        <path d="M.6,1.4a2.67,2.67,0,0,0,.8,2.5A6.78,6.78,0,0,0,3.7,5.3C2.3,4.7.8,4,.1,2.7L.4,3a2.78,2.78,0,0,1,0-1.8" fill="#2a6b7f"/>
        <path d="M.1,125.1a2.65,2.65,0,0,0,1.3-2.3,6.46,6.46,0,0,0-.5-2.7c.5,1.4,1,3,.5,4.4v-.4A2.76,2.76,0,0,1,0,125.3" fill="#2a6b7f"/>
      </g>
    </g>
  </g>
</svg>
