<svg xmlns="http://www.w3.org/2000/svg" viewBox="0 0 125.6 65.7">
  <g id="Lag_2" data-name="Lag 2">
    <g id="Lag_1-2" data-name="Lag 1">
      <g id="stoveKitch-2">
        <rect id="plate-4" x="0.5" y="0.5" width="124.6" height="64.7" fill="none" stroke="#2a6b7f" stroke-miterlimit="10"/>
        <rect x="11.2" y="13.5" width="69.3" height="37.3" fill="#e2eaee"/>
        <path d="M33.8,21.7l-8.5.1A6.45,6.45,0,0,0,19,28.3l.1,8.5a6.51,6.51,0,0,0,6.5,6.3l8.5-.1a6.51,6.51,0,0,0,6.3-6.5L40.3,28a6.45,6.45,0,0,0-6.5-6.3Z" fill="#a7a9ab"/>
        <path d="M25.2,20.3l8.5-.1a7.9,7.9,0,0,1,8,7.7V28l.1,8.5a7.9,7.9,0,0,1-7.7,8H34l-8.5.1a7.9,7.9,0,0,1-8-7.7v-.1l-.1-8.5A7.92,7.92,0,0,1,25.2,20.3Zm8.9,21.2a4.85,4.85,0,0,0,4.8-5h0L38.8,28a4.85,4.85,0,0,0-5-4.8h0l-8.5.1a4.85,4.85,0,0,0-4.8,5h0l.1,8.5a4.85,4.85,0,0,0,5,4.8h0Z" fill="#010202"/>
        <circle cx="29.6" cy="32.2" r="4.7" fill="#010202"/>
        <line x1="29.8" y1="43" x2="29.6" y2="21.7" fill="none"/>
        <rect x="28.22" y="21.69" width="3" height="21.3" transform="translate(-0.38 0.36) rotate(-0.68)" fill="#010202"/>
        <line x1="19" y1="32.5" x2="40.4" y2="32.2" fill="none"/>
        <rect x="19.12" y="30.79" width="21.3" height="3" transform="translate(-0.38 0.36) rotate(-0.68)" fill="#010202"/>
        <path d="M66.1,21.3l-8.5.1a6.45,6.45,0,0,0-6.3,6.5l.1,8.5a6.38,6.38,0,0,0,6.5,6.3l8.5-.1a6.45,6.45,0,0,0,6.3-6.5l-.1-8.5a6.38,6.38,0,0,0-6.5-6.3Z" fill="#a7a9ab"/>
        <path d="M57.6,19.9l8.5-.1a7.9,7.9,0,0,1,8,7.7v.1l.1,8.5a7.9,7.9,0,0,1-7.7,8h-.1l-8.5.1a7.83,7.83,0,0,1-8-7.7v-.1l-.1-8.5a7.9,7.9,0,0,1,7.7-8Zm8.8,21.2a4.79,4.79,0,0,0,4.8-5l-.1-8.5a4.85,4.85,0,0,0-5-4.8h0l-8.5.1a4.79,4.79,0,0,0-4.8,5l.1,8.5a4.85,4.85,0,0,0,5,4.8h0Z" fill="#010202"/>
        <circle cx="62" cy="31.9" r="4.7" fill="#010202"/>
        <line x1="62.1" y1="42.7" x2="61.8" y2="21.3" fill="none"/>
        <rect x="60.52" y="21.39" width="3" height="21.3" transform="translate(-0.38 0.74) rotate(-0.68)" fill="#010202"/>
        <line x1="51.4" y1="32.1" x2="72.7" y2="31.8" fill="none"/>
        <rect x="51.42" y="30.49" width="21.3" height="3" transform="translate(-0.38 0.74) rotate(-0.68)" fill="#010202"/>
      </g>
    </g>
  </g>
</svg>
